<svg width="20" height="16" viewBox="0 0 20 16" fill="none" xmlns="http://www.w3.org/2000/svg">
<path d="M6.66663 14.6667H4.16663V13.0001M6.66663 14.6667V11.3334H9.99996M6.66663 14.6667H9.99996M4.16663 13.0001H3.33329C2.89127 13.0001 2.46734 12.8245 2.15478 12.5119C1.84222 12.1994 1.66663 11.7754 1.66663 11.3334V10.5001C1.66663 10.0581 1.84222 9.63413 2.15478 9.32157C2.46734 9.00901 2.89127 8.83341 3.33329 8.83341H4.16663M4.16663 13.0001V8.83341M9.99996 11.3334H13.3333V14.6667M9.99996 11.3334V14.6667M9.99996 14.6667H13.3333M13.3333 14.6667H15.8333V13.0001M15.8333 13.0001H16.6666C17.1087 13.0001 17.5326 12.8245 17.8451 12.5119C18.1577 12.1994 18.3333 11.7754 18.3333 11.3334V10.5001C18.3333 10.0581 18.1577 9.63413 17.8451 9.32157C17.5326 9.00901 17.1087 8.83341 16.6666 8.83341H15.8333M15.8333 13.0001V8.83341M9.99996 5.50008H7.49996C6.6159 5.50008 5.76806 5.85127 5.14294 6.47639C4.51782 7.10151 4.16663 7.94936 4.16663 8.83341M9.99996 5.50008H12.5C13.384 5.50008 14.2319 5.85127 14.857 6.47639C15.4821 7.10151 15.8333 7.94936 15.8333 8.83341M9.99996 5.50008V2.16675M4.16663 10.0834V11.7501" stroke="#FF9D28" stroke-width="1.66667" stroke-linecap="round" stroke-linejoin="round"/>
<path d="M9.99996 3.00004C10.4602 3.00004 10.8333 2.62694 10.8333 2.16671C10.8333 1.70647 10.4602 1.33337 9.99996 1.33337C9.53972 1.33337 9.16663 1.70647 9.16663 2.16671C9.16663 2.62694 9.53972 3.00004 9.99996 3.00004Z" stroke="#FF9D28" stroke-width="1.66667" stroke-linecap="round" stroke-linejoin="round"/>
</svg>
