<svg xmlns:xlink="http://www.w3.org/1999/xlink" width="154" height="22" viewBox="0 0 154 22" fill="none" xmlns="http://www.w3.org/2000/svg"><path d="M5.39031 5.20621V8.66335H13.4005V13.241H5.39031V21.3919H0V0.635404H13.9888V5.20621H5.39031ZM18.2915 21.3919V0.635404H23.6818V21.3919H18.2915ZM44.1212 21.3919L34.1888 8.69068V21.3851H28.7985V0.635404H34.1888L44.128 13.3298V0.635404H49.5183V21.3919H44.1212ZM68.5212 21.3919L67.1805 17.7845H59.738L58.3083 21.3919H52.6444L60.4905 0.635404H66.4691L74.2877 21.3919H68.5212ZM63.4729 7.07826L61.2292 13.6783H65.7166L63.4729 7.07826ZM104.954 5.20621V21.3851H99.5634V5.20621H94.5698V0.635404H110.043V5.20621H104.954ZM124.203 21.3919L119.031 13.4255V21.3919H113.641V0.635404H122.055C124.018 0.635404 125.728 1.01118 127.131 2.47329C128.314 3.68944 128.909 5.39752 128.909 7.07826C128.909 8.38323 128.505 9.84534 127.726 10.9043C126.884 12.0522 125.762 12.5851 124.394 12.8925L130.906 21.3851H124.203V21.3919ZM120.057 4.8031H119.031V9.94099H120.057C121.74 9.94099 123.361 9.28509 123.361 7.35838C123.361 5.42484 121.706 4.8031 120.057 4.8031ZM148.227 21.3919L146.886 17.7845H139.443L138.014 21.3919H132.316L140.292 0.635404H146.181L154 21.3919H148.227ZM143.178 7.07826L140.935 13.6783H145.422L143.178 7.07826ZM91.5326 18.3242C90.1782 20.9615 86.9358 22 84.1381 22C81.525 22 78.9051 21.0708 76.764 19.595L79.165 15.2429C80.5194 16.4385 82.1201 17.3814 83.9807 17.3814C85.3009 17.3814 86.5938 16.8143 86.5938 15.3043C86.5938 11.6559 77.6875 14.423 77.6875 7.07143C77.6875 2.82857 80.581 0 84.8016 0C87.1273 0 89.1727 0.498758 91.218 1.5646L89.3847 5.99876C88.345 5.15155 87.1 4.52981 85.7114 4.52981C84.6442 4.52981 83.3856 5.12422 83.3856 6.35403C83.3856 9.4354 92.3193 7.41988 92.3193 14.587C92.3193 15.7826 92.1004 17.2584 91.5326 18.3242Z" fill="#FFFFFF"></path></svg>