<svg width="99" height="142" viewBox="0 0 99 142" fill="none" xmlns="http://www.w3.org/2000/svg">
<g clip-path="url(#clip0_1_813)">
<g clip-path="url(#clip1_1_813)">
<g clip-path="url(#clip2_1_813)">
<path d="M-30.6 105.21L-6.78998 86.9697C5.86002 103.48 19.3 111.09 34.26 111.09C49.14 111.09 62.2 103.57 74.28 87.1897L98.43 104.99C81 128.61 59.34 141.09 34.26 141.09C9.26003 141.09 -12.61 128.69 -30.6 105.21Z" fill="url(#paint0_linear_1_813)"/>
<path d="M34.18 25.93L-8.19998 62.45L-27.79 39.73L34.27 -13.75L95.84 39.77L76.16 62.41L34.18 25.93Z" fill="url(#paint1_linear_1_813)"/>
</g>
</g>
</g>
<defs>
<linearGradient id="paint0_linear_1_813" x1="-30.6" y1="3767.67" x2="98.43" y2="3767.67" gradientUnits="userSpaceOnUse">
<stop stop-color="#8930FD"/>
<stop offset="1" stop-color="#49CCF9"/>
</linearGradient>
<linearGradient id="paint1_linear_1_813" x1="-27.79" y1="5168.61" x2="95.84" y2="5168.61" gradientUnits="userSpaceOnUse">
<stop stop-color="#FF02F0"/>
<stop offset="1" stop-color="#FFC800"/>
</linearGradient>
<clipPath id="clip0_1_813">
<rect width="130" height="155" fill="white" transform="translate(-31 -13.9102)"/>
</clipPath>
<clipPath id="clip1_1_813">
<rect width="130" height="155" fill="white" transform="translate(-31 -13.9102)"/>
</clipPath>
<clipPath id="clip2_1_813">
<rect width="130" height="155" fill="white" transform="translate(-31 -13.9102)"/>
</clipPath>
</defs>
</svg>
