<svg xmlns:xlink="http://www.w3.org/1999/xlink" width="115" height="26" viewBox="0 0 115 26" fill="none" xmlns="http://www.w3.org/2000/svg"><g fill="none"><path d="M9.31611 4.65343C4.318 6.81097 1.37045 11.843 3.43581 16.6175C5.50117 21.392 11.3838 23.1445 16.3819 20.9869C21.38 18.8294 25.0878 14.6509 22.0685 8.57433C20.0031 3.79981 14.3142 2.49589 9.31611 4.65343ZM14.8456 17.4355C12.5261 18.4368 8.09767 18.371 6.90644 15.6172C5.71521 12.8634 8.33907 8.75768 10.6586 7.75638C12.9782 6.75509 15.4328 8.52254 16.6241 11.2763C17.8153 14.0301 17.1652 16.4342 14.8456 17.4355Z" fill="#78FFFF"></path></g><g opacity="0.8" fill="none"><path d="M3.97587 16.0622C5.73784 21.3773 11.291 24.6439 16.6126 22.8941C21.9343 21.1443 24.4429 15.2268 22.6809 9.91165C20.9189 4.59655 15.3657 1.3299 10.0441 3.07974C4.7225 4.82958 2.21389 10.7471 3.97587 16.0622ZM18.7225 11.2132C19.5402 13.6799 17.4132 19.7871 14.3439 20.7964C11.2746 21.8056 7.0108 18.9896 7.0038 15.3606C6.99681 11.7316 9.04757 10.4097 11.9485 9.44384C14.8493 8.47801 17.9048 8.74656 18.7225 11.2132Z" fill="#FF02F0"></path></g><g opacity="0.5" fill="none"><path d="M21.1287 17.0835C23.656 12.7061 22.527 7.00103 18.1539 4.46206C13.7808 1.92308 8.2848 3.78186 5.75751 8.15926C3.23021 12.5367 4.35917 18.2418 8.7323 20.7807C13.1054 23.3197 18.6014 21.4609 21.1287 17.0835ZM9.01041 10.0478C10.1833 8.01634 15.5782 5.78637 18.1005 7.25076C20.6227 8.71515 21.282 13.2803 18.8387 15.4624C16.3955 17.6446 14.2735 17.0548 11.8816 15.6779C9.4897 14.3011 7.83752 12.0794 9.01041 10.0478Z" fill="#FF02F0"></path></g><path d="M44.1181 6.11035H40.7573V19.5535H44.1181V6.11035Z" fill="#292D34"></path><path fill-rule="evenodd" clip-rule="evenodd" d="M34.3619 19.859C32.4457 19.859 30.8489 19.2284 29.5536 17.967C28.2584 16.6876 27.6196 15.0479 27.6196 13.0477C27.6196 11.0296 28.2761 9.37182 29.5714 8.07446C30.8843 6.75903 32.4812 6.11035 34.3797 6.11035C36.7217 6.11035 38.7977 7.13743 40.0041 8.74116L37.8927 10.9936C36.8813 9.89439 35.7814 9.3358 34.5926 9.3358C33.5812 9.3358 32.7473 9.67815 32.0554 10.3809C31.3811 11.0837 31.044 11.9666 31.044 13.0297C31.044 14.0568 31.3811 14.9218 32.0554 15.6245C32.7473 16.3092 33.5812 16.6516 34.5749 16.6516C35.8701 16.6516 37.0056 16.075 37.9459 14.9398L40.1462 17.0841C39.543 17.8949 38.7266 18.5616 37.7152 19.0842C36.7041 19.6068 35.5862 19.859 34.3619 19.859Z" fill="#292D34"></path><path fill-rule="evenodd" clip-rule="evenodd" d="M49.0064 7.23954C49.0064 8.20057 48.1859 8.97961 47.1734 8.97961C46.1609 8.97961 45.3401 8.20057 45.3401 7.23954C45.3401 6.27855 46.1609 5.49951 47.1734 5.49951C48.1859 5.49951 49.0064 6.27855 49.0064 7.23954ZM48.8654 9.78268H45.4811V19.5537H48.8654V9.78268Z" fill="#292D34"></path><path fill-rule="evenodd" clip-rule="evenodd" d="M55.0477 19.8588C53.5262 19.8588 52.3018 19.3736 51.34 18.4031C50.3955 17.4326 49.9231 16.1925 49.9231 14.6649C49.9231 13.1373 50.3955 11.8972 51.3573 10.9267C52.3194 9.9562 53.5611 9.47095 55.1002 9.47095C57.1117 9.47095 58.8779 10.4774 59.6999 12.3645L57.2339 13.6944C56.7442 12.8497 56.0623 12.4184 55.1702 12.4184C54.5232 12.4184 53.9983 12.634 53.5786 13.0653C53.1763 13.4967 52.9665 14.0358 52.9665 14.6649C52.9665 15.9768 53.8934 16.9473 55.1354 16.9473C56.0271 16.9473 56.8491 16.4441 57.199 15.6713L59.6651 17.181C58.8255 18.8344 57.0941 19.8588 55.0477 19.8588Z" fill="#292D34"></path><path fill-rule="evenodd" clip-rule="evenodd" d="M63.7725 6.11035H60.6165V19.5535H63.7725V16.1312L64.1422 15.7787L67.0273 19.5535H70.6988L66.2662 13.754L70.477 9.73997H66.6204L63.7725 12.455V6.11035Z" fill="#292D34"></path><path fill-rule="evenodd" clip-rule="evenodd" d="M71.3098 14.5363V6.11035H74.7048V14.3476C74.7048 15.8202 75.5651 16.5299 76.8094 16.5299C78.0356 16.5299 78.9141 15.7847 78.9141 14.3476V6.11035H82.3087V14.5363C82.3087 18.4041 79.5862 19.859 76.8094 19.859C74.0505 19.859 71.3098 18.4041 71.3098 14.5363Z" fill="#292D34"></path><path fill-rule="evenodd" clip-rule="evenodd" d="M89.4865 20.047C92.1029 20.047 94.2242 17.7479 94.2242 14.9118C94.2242 12.0757 92.1029 9.77661 89.4865 9.77661C88.42 9.77661 87.436 10.1586 86.644 10.8032V9.91176H83.5308V23.8308H86.644V19.0204C87.436 19.665 88.42 20.047 89.4865 20.047ZM86.644 14.9171V14.9065C86.6468 13.6401 87.6455 12.6145 88.8773 12.6145C90.111 12.6145 91.111 13.643 91.111 14.9118C91.111 16.1805 90.111 17.2091 88.8773 17.2091C87.6455 17.2091 86.6468 16.1834 86.644 14.9171Z" fill="#292D34"></path><path d="M106.503 20.1645H110.169L105.147 6.11035H101.824L96.6685 20.1645H100.354L101.194 17.5971H105.682L106.503 20.1645ZM104.822 14.5162H102.092L103.486 10.3513L104.822 14.5162Z" fill="#292D34"></path><path d="M111.41 6.11035V20.1645H115V6.11035H111.41Z" fill="#292D34"></path><defs><linearGradient id="paint0_linear_6094_84004" x1="-17.6018" y1="10.6195" x2="9.33118" y2="25.5626" gradientUnits="userSpaceOnUse"><stop stop-color="#6F00FF"></stop><stop offset="1" stop-color="#49CCF9"></stop></linearGradient><linearGradient id="paint1_linear_6094_84004" x1="25.99" y1="4.59746" x2="2.73128" y2="12.3078" gradientUnits="userSpaceOnUse"><stop stop-color="#FF02F0"></stop><stop offset="1" stop-color="#E922C5"></stop></linearGradient><linearGradient id="paint2_linear_6094_84004" x1="0.188137" y1="9.1162" x2="19.3435" y2="20.1756" gradientUnits="userSpaceOnUse"><stop stop-color="#FF02F0"></stop><stop offset="1" stop-color="#EDE4C3"></stop></linearGradient></defs></svg>