<svg width="19" height="17" viewBox="0 0 19 17" fill="none" xmlns="http://www.w3.org/2000/svg">
<path d="M17.163 1.1V1.6H17.663H18.2505V2.1625H17.663H17.163V2.6625V3.25H16.6005V2.6625V2.1625H16.1005H15.5005V1.6H16.1005H16.6005V1.1V0.5H17.163V1.1ZM15.7245 5.27859L15.7125 5.24241C15.8829 5.26735 16.0511 5.30782 16.215 5.36356C16.5874 5.49018 16.9294 5.69282 17.2192 5.95864C17.5091 6.22445 17.7406 6.54763 17.8989 6.90765C18.0573 7.26768 18.139 7.65669 18.139 8.05C18.139 8.44331 18.0573 8.83232 17.8989 9.19235C17.7406 9.55237 17.5091 9.87555 17.2192 10.1414C16.9294 10.4072 16.5874 10.6098 16.215 10.7364C15.8426 10.8631 15.448 10.9109 15.0562 10.8769L15.0425 10.8757L15.0287 10.8752C14.0623 10.8448 13.1138 10.6066 12.2476 10.1771L12.1944 10.1507L12.1366 10.1375C12.0275 10.1126 11.9147 10.1099 11.8048 10.1293C11.7011 10.1405 11.6001 10.1701 11.5066 10.2169C11.4012 10.2697 11.3076 10.3433 11.2313 10.4332C11.155 10.5231 11.0977 10.6275 11.0628 10.7401C11.0309 10.8428 11.0183 10.9505 11.0255 11.0577V14.6875C11.0255 14.9693 10.9135 15.2395 10.7143 15.4388C10.515 15.6381 10.2447 15.75 9.96295 15.75H1.56295H1.56281C1.4211 15.75 1.28083 15.7217 1.15023 15.6668C1.01963 15.6118 0.901347 15.5312 0.802344 15.4298C0.703341 15.3285 0.625617 15.2083 0.573746 15.0764C0.521875 14.9446 0.496905 14.8037 0.500306 14.662L0.50045 14.662V14.65V10.9C0.500442 10.5336 0.645363 10.1821 0.903585 9.92211C1.16044 9.66355 1.50865 9.51648 1.87293 9.51254C2.05401 9.51634 2.23235 9.55723 2.39694 9.63264C3.22571 10.097 4.15226 10.3597 5.10159 10.3994C5.73196 10.4331 6.35025 10.217 6.82246 9.79786C7.29554 9.37801 7.58375 8.78836 7.62442 8.15715L7.62649 8.125L7.62442 8.09285C7.58375 7.46164 7.29554 6.87199 6.82246 6.45214C6.35025 6.03305 5.73196 5.81695 5.10159 5.85056C4.15226 5.89025 3.2257 6.15298 2.39694 6.61736C2.23233 6.69277 2.05398 6.73366 1.87289 6.73746C1.69108 6.73554 1.5114 6.6979 1.34408 6.62666C1.17498 6.55467 1.02187 6.44981 0.893643 6.31816C0.765411 6.1865 0.664611 6.03069 0.597096 5.85976C0.529581 5.68883 0.496696 5.50619 0.500351 5.32244L0.50045 5.32245V5.3125V1.5625C0.50045 1.28071 0.612392 1.01046 0.811649 0.811199C1.01091 0.611942 1.28116 0.5 1.56295 0.5H9.95857C10.2361 0.505385 10.5005 0.619166 10.6953 0.817082C10.8909 1.01586 11.0005 1.28356 11.0005 1.56244V1.5625V5.25C11.0005 5.48206 11.0926 5.70462 11.2567 5.86872C11.4208 6.03281 11.6434 6.125 11.8755 6.125H11.9781L12.0724 6.08457L12.2474 6.00957L12.2602 6.00411L12.2726 5.99794C13.1388 5.56835 14.0873 5.33023 15.0537 5.29975L15.7245 5.27859ZM16.942 9.74014L17.1005 9.59194V9.46274C17.4137 9.07024 17.5862 8.58132 17.5862 8.075C17.5862 7.49727 17.3615 6.9422 16.9596 6.52717L16.9456 6.51266L16.9304 6.49933C16.6635 6.26491 16.3514 6.08767 16.0134 5.97854C15.6795 5.87076 15.3274 5.83167 14.9781 5.86358C14.1019 5.9048 13.2441 6.12962 12.4604 6.52349C12.2768 6.60525 12.0783 6.64832 11.8774 6.64998C11.501 6.64393 11.1419 6.49049 10.8774 6.22251C10.6118 5.95345 10.4629 5.5906 10.463 5.21254V5.2125V1.55V1.05H9.96295H1.56295H1.06295V1.55L1.06295 5.29963C1.06295 5.29969 1.06295 5.29976 1.06295 5.29982C1.06295 5.29988 1.06295 5.29994 1.06295 5.3C1.06289 5.51328 1.14543 5.71831 1.29326 5.87206C1.42803 6.01221 1.60749 6.09982 1.79962 6.1205C1.90864 6.14145 2.02143 6.13622 2.12858 6.10482L2.14751 6.09927L2.16595 6.09224L2.42845 5.99224L2.45813 5.98094L2.48614 5.96597C3.30053 5.5307 4.20778 5.29797 5.13113 5.28747L5.13114 5.28755L5.14021 5.28728C5.92241 5.26418 6.68199 5.55151 7.25307 6.08653C7.82003 6.61768 8.15549 7.35012 8.18762 8.1259C8.15822 8.90358 7.82395 9.63874 7.25668 10.1722C6.68529 10.7095 5.92414 10.9983 5.14015 10.9752L5.14015 10.9751L5.13113 10.975C4.20778 10.9645 3.30053 10.7318 2.48614 10.2965L2.46717 10.2864L2.44741 10.2779L2.18491 10.1654L2.09058 10.125H1.98795H1.87545H1.86601L1.85658 10.1254C1.6487 10.1332 1.45145 10.2193 1.30436 10.3664C1.15726 10.5135 1.07116 10.7107 1.06331 10.9186L1.06295 10.9281V10.9375V14.6875V15.1875H1.56295H9.93795H10.438V14.6875V11.0375C10.438 10.6563 10.5894 10.2906 10.859 10.021C11.1258 9.7542 11.4868 9.6031 11.8638 9.60005C12.0745 9.61156 12.2803 9.66854 12.467 9.76713L12.4669 9.76721L12.4751 9.77135C13.2642 10.1697 14.1286 10.3965 15.0116 10.4368C15.3631 10.4577 15.7152 10.407 16.0465 10.2877C16.3791 10.168 16.6839 9.98165 16.942 9.74014Z" fill="black" stroke="#273B7D"/>
</svg>
