<svg xmlns:xlink="http://www.w3.org/1999/xlink" width="16" height="10" viewBox="0 0 16 10" fill="none" xmlns="http://www.w3.org/2000/svg"><path fill-rule="evenodd" clip-rule="evenodd" d="M0.999907 3.9979H12.5892L10.3005 1.70918C9.90997 1.31866 9.90997 0.685492 10.3005 0.294968C10.691 -0.0955561 11.3242 -0.0955554 11.7147 0.294969L15.7071 4.28737C15.9028 4.48307 16.0004 4.73971 16 4.9962C16.0004 5.25269 15.9028 5.50931 15.7071 5.705L11.7071 9.70497C11.3166 10.0955 10.6834 10.0955 10.2929 9.70497C9.9024 9.31445 9.9024 8.68128 10.2929 8.29076L12.5858 5.9979H0.999907C0.447622 5.9979 -9.34601e-05 5.55018 -9.34601e-05 4.9979C-9.34601e-05 4.44561 0.447622 3.9979 0.999907 3.9979Z" fill="#FD71AF"></path></svg>