<svg width="24" height="27" viewBox="0 0 24 27" fill="none" xmlns="http://www.w3.org/2000/svg">
<path d="M4.18858 17.9628C3.78331 18.3505 3.54235 18.8992 3.51514 19.4962C3.48792 20.0932 3.6765 20.6933 4.04221 21.1734C5.78528 23.4455 8.50347 24.4337 10.6671 23.1231C13.0671 21.6653 15.1602 19.7199 16.8374 17.3881C18.5156 15.0737 19.7609 12.4213 20.5113 9.56315C21.1814 6.99447 19.6655 4.37215 17.2017 3.08087C16.6834 2.80929 16.1004 2.75187 15.5702 2.92021C15.0401 3.08856 14.6024 3.47012 14.3454 3.98791L13.3408 6.01904C13.1383 6.42636 13.0591 6.89726 13.1134 7.37067C13.1678 7.84408 13.3531 8.29815 13.6455 8.67397L15.8769 11.5412L15.5705 12.3197C15.1815 13.3018 14.6829 14.2243 14.0847 15.068C13.4714 15.9001 12.7597 16.6417 11.9656 17.2762L11.3453 17.7775L8.24718 16.1173C7.83612 15.8992 7.38135 15.8127 6.94063 15.8688C6.49991 15.9249 6.09312 16.1212 5.77192 16.4326L4.18858 17.9628ZM2.05828 22.8637C1.2562 21.8139 0.841232 20.5007 0.898415 19.1934C0.955598 17.8861 1.4806 16.6837 2.36584 15.8324L3.94783 14.3058C4.6423 13.6337 5.52158 13.2109 6.47386 13.0909C7.42614 12.971 8.4084 13.1595 9.29574 13.6323L10.893 14.4889C11.2441 14.1563 11.632 13.7418 11.9793 13.2673C12.3193 12.7957 12.5997 12.293 12.8148 11.85L11.6724 10.3844C11.0352 9.5644 10.6311 8.57412 10.5125 7.54168C10.3938 6.50924 10.5661 5.48218 11.0069 4.59343L12.0116 2.56229C12.5699 1.43349 13.5226 0.6012 14.6771 0.233641C15.8316 -0.133919 17.1018 -0.00933061 18.2309 0.582222C21.5145 2.3025 24.15 6.20122 23.0356 10.4701C22.2008 13.6529 20.8148 16.6067 18.9466 19.1842C17.076 21.7854 14.7416 23.9557 12.0648 25.5821C8.49604 27.7413 4.38413 25.8976 2.06068 22.8628" fill="white"/>
</svg>
