<svg width="16" height="16" viewBox="0 0 16 16" fill="none" xmlns="http://www.w3.org/2000/svg">
<path d="M1 1.83333C1 1.61232 1.0878 1.40036 1.24408 1.24408C1.40036 1.0878 1.61232 1 1.83333 1H5.16667C5.38768 1 5.59964 1.0878 5.75592 1.24408C5.9122 1.40036 6 1.61232 6 1.83333V6C6 6.22101 5.9122 6.43298 5.75592 6.58926C5.59964 6.74554 5.38768 6.83333 5.16667 6.83333H1.83333C1.61232 6.83333 1.40036 6.74554 1.24408 6.58926C1.0878 6.43298 1 6.22101 1 6V1.83333ZM9.33333 1.83333C9.33333 1.61232 9.42113 1.40036 9.57741 1.24408C9.73369 1.0878 9.94565 1 10.1667 1H13.5C13.721 1 13.933 1.0878 14.0893 1.24408C14.2455 1.40036 14.3333 1.61232 14.3333 1.83333V3.5C14.3333 3.72101 14.2455 3.93298 14.0893 4.08926C13.933 4.24554 13.721 4.33333 13.5 4.33333H10.1667C9.94565 4.33333 9.73369 4.24554 9.57741 4.08926C9.42113 3.93298 9.33333 3.72101 9.33333 3.5V1.83333ZM1 11C1 10.779 1.0878 10.567 1.24408 10.4107C1.40036 10.2545 1.61232 10.1667 1.83333 10.1667H5.16667C5.38768 10.1667 5.59964 10.2545 5.75592 10.4107C5.9122 10.567 6 10.779 6 11V13.5C6 13.721 5.9122 13.933 5.75592 14.0893C5.59964 14.2455 5.38768 14.3333 5.16667 14.3333H1.83333C1.61232 14.3333 1.40036 14.2455 1.24408 14.0893C1.0878 13.933 1 13.721 1 13.5V11ZM9.33333 8.5C9.33333 8.27899 9.42113 8.06702 9.57741 7.91074C9.73369 7.75446 9.94565 7.66667 10.1667 7.66667H13.5C13.721 7.66667 13.933 7.75446 14.0893 7.91074C14.2455 8.06702 14.3333 8.27899 14.3333 8.5V13.5C14.3333 13.721 14.2455 13.933 14.0893 14.0893C13.933 14.2455 13.721 14.3333 13.5 14.3333H10.1667C9.94565 14.3333 9.73369 14.2455 9.57741 14.0893C9.42113 13.933 9.33333 13.721 9.33333 13.5V8.5Z" stroke="#7B68EE" stroke-width="1.66667"/>
</svg>
