<svg width="18" height="18" viewBox="0 0 18 18" fill="none" xmlns="http://www.w3.org/2000/svg">
<path d="M1.7467 16.1683L7.05003 10.865M13.7284 8.50665L12.1409 13.2692C12.1155 13.3455 12.0722 13.4146 12.0144 13.4706C11.9567 13.5266 11.8863 13.5678 11.8092 13.5908L2.07753 16.4833C1.98986 16.5094 1.89672 16.5109 1.80826 16.4876C1.71979 16.4644 1.63939 16.4174 1.5758 16.3516C1.51222 16.2859 1.46788 16.204 1.44761 16.1148C1.42734 16.0256 1.43193 15.9326 1.46087 15.8458L4.62086 6.36749C4.64351 6.29943 4.68054 6.23705 4.72942 6.18456C4.77831 6.13208 4.83792 6.09073 4.9042 6.06332L9.39337 4.21499C9.48463 4.17729 9.58501 4.16747 9.68185 4.18675C9.7787 4.20603 9.86766 4.25355 9.93753 4.32332L13.6075 7.99499C13.6732 8.06064 13.7193 8.14329 13.7406 8.23366C13.762 8.32403 13.7577 8.41856 13.7284 8.50665Z" stroke="#FF0B71" stroke-width="1.25" stroke-linecap="round" stroke-linejoin="round"/>
<path d="M13.8267 8.21332L16.1834 5.85583C16.4959 5.54328 16.6714 5.11943 16.6714 4.67749C16.6714 4.23555 16.4959 3.81171 16.1834 3.49916L14.4167 1.73083C14.262 1.57599 14.0782 1.45316 13.8759 1.36936C13.6737 1.28556 13.4569 1.24243 13.238 1.24243C13.0191 1.24243 12.8023 1.28556 12.6 1.36936C12.3978 1.45316 12.214 1.57599 12.0592 1.73083L9.70257 4.08833M8.81757 9.09666C8.70146 8.9806 8.56363 8.88855 8.41194 8.82576C8.26026 8.76298 8.09769 8.73068 7.93353 8.73072C7.76936 8.73076 7.60681 8.76313 7.45515 8.82599C7.3035 8.88885 7.16571 8.98096 7.04965 9.09708C6.9336 9.21319 6.84155 9.35102 6.77876 9.5027C6.71597 9.65439 6.68368 9.81695 6.68372 9.98112C6.68375 10.1453 6.71613 10.3078 6.77899 10.4595C6.84185 10.6111 6.93396 10.7489 7.05007 10.865C7.28457 11.0994 7.60257 11.231 7.93412 11.2309C8.26566 11.2309 8.5836 11.0991 8.81799 10.8646C9.05237 10.6301 9.18401 10.3121 9.18393 9.98053C9.18385 9.64898 9.05207 9.33104 8.81757 9.09666Z" stroke="#FF0B71" stroke-width="1.25" stroke-linecap="round" stroke-linejoin="round"/>
</svg>
