<svg width="17" height="17" viewBox="0 0 17 17" fill="none" xmlns="http://www.w3.org/2000/svg">
<path d="M4.33333 4.33333H12.6667M4.33333 8.5H12.6667M4.33333 12.6667H9.33333M14.3333 1H2.66667C2.22464 1 1.80072 1.17559 1.48816 1.48816C1.17559 1.80072 1 2.22464 1 2.66667V14.3333C1 14.7754 1.17559 15.1993 1.48816 15.5118C1.80072 15.8244 2.22464 16 2.66667 16H14.3333C14.7754 16 15.1993 15.8244 15.5118 15.5118C15.8244 15.1993 16 14.7754 16 14.3333V2.66667C16 2.22464 15.8244 1.80072 15.5118 1.48816C15.1993 1.17559 14.7754 1 14.3333 1Z" stroke="#1F70C1" stroke-width="1.25" stroke-linecap="round" stroke-linejoin="round"/>
</svg>
