<svg width="20" height="20" viewBox="0 0 20 20" fill="none" xmlns="http://www.w3.org/2000/svg">
<path d="M18.4879 16.1868L18.4881 16.1869C18.6148 16.3137 18.6217 16.5077 18.4854 16.6492L16.5714 18.5632C16.4417 18.6929 16.2333 18.6929 16.1035 18.5632L8.51185 10.9715L8.2842 10.7438L7.98274 10.8569C6.22482 11.5161 4.17548 11.1435 2.77019 9.73817L2.76942 9.7374C1.17612 8.15103 0.908663 5.73666 1.96004 3.86495L4.71401 6.60454L5.0638 6.95251L5.41639 6.60737L6.59973 5.44903L6.9604 5.09598L6.60398 4.73863L3.84122 1.96868C5.71854 0.916929 8.12725 1.18445 9.72141 2.77861L9.72234 2.77954C11.1651 4.21473 11.5152 6.30023 10.8103 8.07372L10.6889 8.37919L10.9212 8.61175L18.4879 16.1868ZM15.9881 17.5119L16.3416 17.8655L16.6952 17.5119L17.4369 16.7703L17.7906 16.4165L17.4367 16.063L9.85164 8.48597C10.1374 8.03261 10.3329 7.52663 10.4256 6.99589C10.5471 6.32424 10.504 5.63315 10.3 4.98177C10.0959 4.32985 9.73668 3.73716 9.25322 3.25453L9.25165 3.25297C8.35741 2.36815 7.19612 1.95352 6.01347 2.00045L4.87688 2.04555L5.67861 2.85247L7.90233 5.09059L5.07497 7.91795L2.85352 5.6965L2.06372 4.9067L2.00076 6.02188C1.93474 7.19137 2.34989 8.38263 3.24731 9.27118C4.23258 10.2559 5.5844 10.6408 6.86283 10.4533C7.39752 10.3778 7.91451 10.2002 8.39327 9.91713L15.9881 17.5119Z" fill="black" stroke="#FF0B71"/>
</svg>
