<svg width="17" height="16" viewBox="0 0 17 16" fill="none" xmlns="http://www.w3.org/2000/svg">
<path d="M10 9.58333C10.0006 10.0422 9.8375 10.4347 9.51083 10.7608C9.18417 11.0869 8.79167 11.25 8.33333 11.25C7.87556 11.2506 7.48333 11.0875 7.15667 10.7608C6.83 10.4342 6.66667 10.0417 6.66667 9.58333H10ZM10 9.58333C10 9.125 9.83694 8.73278 9.51083 8.40667C9.18472 8.08056 8.79222 7.91722 8.33333 7.91667L10 9.58333ZM12.1667 3.33333H11.6667V2.83333V1.66667C11.6672 1.20889 11.5042 0.816667 11.1775 0.49C10.8508 0.163333 10.4583 0 10 0L12.1667 3.33333ZM12.1667 3.33333H15C15.4583 3.33333 15.8508 3.49667 16.1775 3.82333C16.5042 4.15 16.6672 4.54222 16.6667 5V14.1667C16.6667 14.625 16.5036 15.0175 16.1775 15.3442C15.8514 15.6708 15.4589 15.8339 15 15.8333L12.1667 3.33333ZM7.51022 10.4073C7.27654 10.1736 7.16672 9.90801 7.16667 9.58357C7.16714 9.25944 7.27706 8.99378 7.51052 8.75992C7.74346 8.52658 8.00852 8.41679 8.33281 8.41667C8.65852 8.41708 8.92428 8.52722 9.15728 8.76022C9.39028 8.99322 9.5 9.25854 9.5 9.58333L9.5 9.58394C9.50039 9.90899 9.39077 10.1742 9.15758 10.407C8.92391 10.6403 8.65815 10.75 8.33333 10.75L8.33273 10.75C8.00913 10.7504 7.74394 10.641 7.51022 10.4073ZM6.667 0.5H10C10.3245 0.5 10.5902 0.609817 10.8239 0.843553C11.0577 1.07727 11.1671 1.34246 11.1667 1.66606V1.66667V3.33333V3.83333H11.6667H15C15.3245 3.83333 15.5902 3.94315 15.8239 4.17689C16.0577 4.4106 16.1671 4.6758 16.1667 4.99939V5V14.1667C16.1667 14.4915 16.0569 14.7572 15.8236 14.9909C15.5909 15.2241 15.3257 15.3337 15.0006 15.3333H15H1.66667C1.34187 15.3333 1.07655 15.2236 0.843553 14.9906C0.610599 14.7577 0.500456 14.492 0.5 14.1663V5C0.5 4.67548 0.609788 4.41025 0.843252 4.17719C1.07711 3.94372 1.34278 3.83381 1.66692 3.83333H5H5.5V3.33333V1.66667C5.5 1.34214 5.60979 1.07692 5.84325 0.843854C6.07713 0.610371 6.34283 0.500455 6.667 0.5ZM1.16667 14.1667V14.6667H1.66667H15H15.5V14.1667V5V4.5H15H1.66667H1.16667V5V14.1667ZM6.16667 3.33333V3.83333H6.66667H10H10.5V3.33333V1.66667V1.16667H10H6.66667H6.16667V1.66667V3.33333Z" fill="none" stroke="#7B68EE"/>
</svg>
