<svg xmlns:xlink="http://www.w3.org/1999/xlink" width="85" height="14" viewBox="0 0 85 14" fill="none" xmlns="http://www.w3.org/2000/svg"><title>five stars</title><path d="M14.0833 5.65881C14.1951 5.54786 14.3069 5.40276 14.3069 5.24913C14.3069 4.99307 14.0317 4.89065 13.8254 4.85651L9.50925 4.23344L7.57473 0.349942C7.49735 0.187774 7.35118 0 7.15343 0C6.95568 0 6.80952 0.187774 6.73214 0.349942L4.79761 4.23344L0.481481 4.85651C0.266534 4.89065 0 4.99307 0 5.24913C0 5.40276 0.111772 5.54786 0.214947 5.65881L3.34457 8.68026L2.60516 12.9478C2.60419 12.9546 2.60322 12.9612 2.60227 12.9677C2.59473 13.0192 2.58796 13.0655 2.58796 13.1185C2.58796 13.3405 2.69973 13.5453 2.94907 13.5453C3.06944 13.5453 3.18121 13.5026 3.29299 13.4429L7.15343 11.4286L11.0139 13.4429C11.1171 13.5026 11.2374 13.5453 11.3578 13.5453C11.6071 13.5453 11.7103 13.3405 11.7103 13.1185C11.7103 13.0588 11.7103 13.0076 11.7017 12.9478L10.9623 8.68026L14.0833 5.65881Z" fill="#FFC800"></path><path d="M31.6918 5.65881C31.8035 5.54786 31.9153 5.40276 31.9153 5.24913C31.9153 4.99307 31.6402 4.89065 31.4338 4.85651L27.1177 4.23344L25.1832 0.349942C25.1058 0.187774 24.9596 0 24.7619 0C24.5641 0 24.418 0.187774 24.3406 0.349942L22.4061 4.23344L18.0899 4.85651C17.875 4.89065 17.6085 4.99307 17.6085 5.24913C17.6085 5.40276 17.7202 5.54786 17.8234 5.65881L20.953 8.68026L20.2136 12.9478C20.2126 12.9546 20.2117 12.9612 20.2107 12.9677C20.2032 13.0192 20.1964 13.0655 20.1964 13.1185C20.1964 13.3405 20.3082 13.5453 20.5575 13.5453C20.6779 13.5453 20.7897 13.5026 20.9014 13.4429L24.7619 11.4286L28.6223 13.4429C28.7255 13.5026 28.8459 13.5453 28.9662 13.5453C29.2156 13.5453 29.3188 13.3405 29.3188 13.1185C29.3188 13.0588 29.3188 13.0076 29.3102 12.9478L28.5707 8.68026L31.6918 5.65881Z" fill="#FFC800"></path><path d="M49.3002 5.65881C49.412 5.54786 49.5238 5.40276 49.5238 5.24913C49.5238 4.99307 49.2486 4.89065 49.0423 4.85651L44.7262 4.23344L42.7916 0.349942C42.7143 0.187774 42.5681 0 42.3703 0C42.1726 0 42.0264 0.187774 41.949 0.349942L40.0145 4.23344L35.6984 4.85651C35.4834 4.89065 35.2169 4.99307 35.2169 5.24913C35.2169 5.40276 35.3287 5.54786 35.4319 5.65881L38.5615 8.68026L37.8221 12.9478C37.8211 12.9546 37.8201 12.9612 37.8192 12.9677C37.8116 13.0192 37.8049 13.0655 37.8049 13.1185C37.8049 13.3405 37.9166 13.5453 38.166 13.5453C38.2863 13.5453 38.3981 13.5026 38.5099 13.4429L42.3703 11.4286L46.2308 13.4429C46.334 13.5026 46.4543 13.5453 46.5747 13.5453C46.824 13.5453 46.9272 13.3405 46.9272 13.1185C46.9272 13.0588 46.9272 13.0076 46.9186 12.9478L46.1792 8.68026L49.3002 5.65881Z" fill="#FFC800"></path><path d="M66.9087 5.65881C67.0204 5.54786 67.1322 5.40276 67.1322 5.24913C67.1322 4.99307 66.8571 4.89065 66.6507 4.85651L62.3346 4.23344L60.4001 0.349942C60.3227 0.187774 60.1765 0 59.9788 0C59.781 0 59.6349 0.187774 59.5575 0.349942L57.623 4.23344L53.3068 4.85651C53.0919 4.89065 52.8254 4.99307 52.8254 5.24913C52.8254 5.40276 52.9371 5.54786 53.0403 5.65881L56.1699 8.68026L55.4305 12.9478C55.4295 12.9546 55.4286 12.9612 55.4276 12.9677C55.4201 13.0192 55.4133 13.0655 55.4133 13.1185C55.4133 13.3405 55.5251 13.5453 55.7744 13.5453C55.8948 13.5453 56.0066 13.5026 56.1183 13.4429L59.9788 11.4286L63.8392 13.4429C63.9424 13.5026 64.0628 13.5453 64.1832 13.5453C64.4325 13.5453 64.5357 13.3405 64.5357 13.1185C64.5357 13.0588 64.5357 13.0076 64.5271 12.9478L63.7876 8.68026L66.9087 5.65881Z" fill="#FFC800"></path><path d="M84.5171 5.65881C84.6289 5.54786 84.7407 5.40276 84.7407 5.24913C84.7407 4.99307 84.4655 4.89065 84.2592 4.85651L79.9431 4.23344L78.0085 0.349942C77.9312 0.187774 77.785 0 77.5872 0C77.3895 0 77.2433 0.187774 77.1659 0.349942L75.2314 4.23344L70.9153 4.85651C70.7003 4.89065 70.4338 4.99307 70.4338 5.24913C70.4338 5.40276 70.5456 5.54786 70.6488 5.65881L73.7784 8.68026L73.039 12.9478C73.038 12.9546 73.037 12.9612 73.0361 12.9677C73.0285 13.0192 73.0218 13.0655 73.0218 13.1185C73.0218 13.3405 73.1335 13.5453 73.3829 13.5453C73.5033 13.5453 73.615 13.5026 73.7268 13.4429L77.5872 11.4286L81.4477 13.4429C81.5509 13.5026 81.6712 13.5453 81.7916 13.5453C82.0409 13.5453 82.1441 13.3405 82.1441 13.1185C82.1441 13.0588 82.1441 13.0076 82.1355 12.9478L81.3961 8.68026L84.5171 5.65881Z" fill="#FFC800"></path></svg>