<svg width="18" height="18" viewBox="0 0 18 18" fill="none" xmlns="http://www.w3.org/2000/svg">
<path fill-rule="evenodd" clip-rule="evenodd" d="M8.99996 0.0417051C7.47663 0.0417051 6.21746 0.175872 5.24829 0.339205L5.13663 0.358372C4.29496 0.499205 3.59496 0.616705 3.04746 1.29004C2.69746 1.72254 2.58329 2.19004 2.55746 2.71087L2.14746 2.84754C1.76163 2.97587 1.42246 3.08921 1.15496 3.21421C0.864959 3.34921 0.599126 3.52254 0.395793 3.80504C0.192459 4.0867 0.111626 4.3942 0.0749593 4.7117C0.0416259 5.00587 0.041626 5.3617 0.041626 5.7692V5.89004C0.041626 6.22504 0.041626 6.52087 0.066626 6.76837C0.0932926 7.03587 0.152459 7.29671 0.299959 7.54837C0.449126 7.80087 0.647459 7.9792 0.869126 8.13254C1.07329 8.2742 1.33163 8.41837 1.62496 8.58087L3.82496 9.80337C4.27496 10.6875 4.89246 11.4759 5.74163 12.045C6.48079 12.5417 7.36829 12.8534 8.41913 12.9359C8.3899 13.0093 8.37491 13.0877 8.37496 13.1667V14.625H7.18329C6.84614 14.625 6.51941 14.7419 6.25869 14.9557C5.99797 15.1694 5.81937 15.4669 5.75329 15.7975L5.57079 16.7084H3.99996C3.8342 16.7084 3.67523 16.7742 3.55802 16.8914C3.44081 17.0086 3.37496 17.1676 3.37496 17.3334C3.37496 17.4991 3.44081 17.6581 3.55802 17.7753C3.67523 17.8925 3.8342 17.9584 3.99996 17.9584H14C14.1657 17.9584 14.3247 17.8925 14.4419 17.7753C14.5591 17.6581 14.625 17.4991 14.625 17.3334C14.625 17.1676 14.5591 17.0086 14.4419 16.8914C14.3247 16.7742 14.1657 16.7084 14 16.7084H12.4291L12.2466 15.7975C12.1805 15.4669 12.0019 15.1694 11.7412 14.9557C11.4805 14.7419 11.1538 14.625 10.8166 14.625H9.62496V13.1667C9.62501 13.0877 9.61002 13.0093 9.58079 12.9359C10.6316 12.8525 11.5191 12.5417 12.2583 12.0459C13.1083 11.4759 13.725 10.6875 14.175 9.80337L16.375 8.58087C16.6683 8.41837 16.9266 8.2742 17.1308 8.13254C17.3516 7.9792 17.5508 7.80087 17.6991 7.5492C17.8475 7.2967 17.9075 7.03587 17.9333 6.76837C17.9583 6.52087 17.9583 6.22504 17.9583 5.89004V5.7692C17.9583 5.36254 17.9583 5.00587 17.925 4.7117C17.8883 4.3942 17.8083 4.0867 17.6041 3.80504C17.4008 3.52254 17.135 3.34921 16.8458 3.21337C16.5766 3.08837 16.2383 2.97587 15.8525 2.84754L15.4425 2.71087C15.4175 2.18921 15.3033 1.72254 14.9525 1.29004C14.4058 0.615872 13.7058 0.498372 12.8641 0.358372L12.7516 0.339205C11.5115 0.135914 10.2566 0.0364022 8.99996 0.0417051ZM11.1541 16.7084L11.0208 16.0425C11.0114 15.9953 10.9859 15.9528 10.9486 15.9223C10.9114 15.8918 10.8648 15.8751 10.8166 15.875H7.18329C7.13515 15.8751 7.0885 15.8918 7.05128 15.9223C7.01406 15.9528 6.98856 15.9953 6.97913 16.0425L6.84579 16.7084H11.1541ZM2.57329 4.02337L2.58496 4.0192C2.64496 5.28587 2.78746 6.68587 3.14413 7.9942L2.25579 7.5017C1.93163 7.32087 1.72829 7.20754 1.58163 7.10587C1.44663 7.01171 1.40246 6.95587 1.37829 6.9142C1.35329 6.87254 1.32663 6.80754 1.30996 6.64421C1.29229 6.38405 1.28618 6.12324 1.29163 5.86254V5.8017C1.29163 5.35254 1.29246 5.06837 1.31663 4.85337C1.33996 4.65504 1.37663 4.58087 1.40996 4.53587C1.44246 4.49004 1.50079 4.4317 1.68163 4.34754C1.87829 4.25587 2.14829 4.16587 2.57329 4.02337ZM15.415 4.01837C15.3558 5.28504 15.2125 6.68504 14.8566 7.99337L15.7441 7.50087C16.0683 7.32004 16.2716 7.2067 16.4183 7.10504C16.5533 7.01087 16.5975 6.95504 16.6216 6.91337C16.6466 6.87171 16.6733 6.8067 16.69 6.64337C16.7075 6.46504 16.7083 6.23254 16.7083 5.86171V5.80087C16.7083 5.35171 16.7075 5.06754 16.6833 4.85254C16.66 4.6542 16.6233 4.58004 16.59 4.53504C16.5575 4.48921 16.4991 4.43087 16.3183 4.3467C16.1216 4.25504 15.8516 4.1642 15.4266 4.0217L15.415 4.01837ZM5.45663 1.57171C6.6279 1.38007 7.81312 1.28641 8.99996 1.29171C10.45 1.29171 11.6391 1.41921 12.5433 1.57171C13.5491 1.74171 13.76 1.80504 13.9825 2.07837C14.2008 2.34671 14.2216 2.6017 14.1766 3.73087C14.1016 5.61254 13.8533 7.64421 13.085 9.1892C12.705 9.95087 12.2083 10.5742 11.5625 11.0075C10.92 11.4384 10.0908 11.7084 8.99996 11.7084C7.90913 11.7084 7.08079 11.4384 6.43829 11.0075C5.79163 10.5742 5.29496 9.95087 4.91579 9.18837C4.14663 7.6442 3.89913 5.61337 3.82413 3.73004C3.77913 2.60171 3.79913 2.34671 4.01829 2.07837C4.23996 1.80504 4.45079 1.74171 5.45663 1.57171Z" fill="#FF0BE5"/>
</svg>
