<svg width="17" height="18" viewBox="0 0 17 18" fill="none" xmlns="http://www.w3.org/2000/svg">
<path d="M4.375 7H3.875V7.5V11.4125C3.875 12.5511 4.79886 13.475 5.9375 13.475H6.875H7.375V12.975V12.8125C7.375 12.1992 7.61864 11.611 8.05232 11.1773C8.48599 10.7436 9.07419 10.5 9.6875 10.5H13.4375C14.0508 10.5 14.639 10.7436 15.0727 11.1773C15.5064 11.611 15.75 12.1992 15.75 12.8125V14.6875C15.75 15.3008 15.5064 15.889 15.0727 16.3227C14.639 16.7564 14.0508 17 13.4375 17H9.68755C9.68754 17 9.68752 17 9.6875 17C9.09738 16.9999 8.52961 16.7742 8.10047 16.3692C7.67131 15.9641 7.41326 15.4103 7.37917 14.8211L7.3519 14.35H6.88H5.9375C5.15843 14.35 4.41126 14.0405 3.86037 13.4896C3.30949 12.9387 3 12.1916 3 11.4125V7.4825V7.03529L2.55556 6.9856C1.99027 6.92239 1.4681 6.65307 1.08889 6.22911C0.709677 5.80515 0.500021 5.25631 0.5 4.6875C0.5 4.68749 0.5 4.68749 0.5 4.68748V2.8125C0.5 2.19919 0.743638 1.61099 1.17732 1.17732C1.61099 0.743638 2.19919 0.5 2.8125 0.5H13.4375C14.0508 0.5 14.639 0.743638 15.0727 1.17732C15.5064 1.61099 15.75 2.19919 15.75 2.8125V4.6875C15.75 5.30081 15.5064 5.88901 15.0727 6.32268C14.639 6.75636 14.0508 7 13.4375 7H4.375ZM13.4375 1.375H2.8125C2.43125 1.375 2.06562 1.52645 1.79603 1.79603C1.52645 2.06562 1.375 2.43125 1.375 2.8125V4.6875C1.375 5.48114 2.01886 6.125 2.8125 6.125H13.4375C13.8187 6.125 14.1844 5.97355 14.454 5.70397C14.7235 5.43438 14.875 5.06875 14.875 4.6875V2.8125C14.875 2.43125 14.7235 2.06562 14.454 1.79603C14.1844 1.52645 13.8187 1.375 13.4375 1.375ZM13.4375 11.375H9.6875C9.30625 11.375 8.94062 11.5265 8.67103 11.796C8.40145 12.0656 8.25 12.4313 8.25 12.8125V14.6875C8.25 15.0687 8.40145 15.4344 8.67103 15.704C8.94062 15.9735 9.30625 16.125 9.6875 16.125H13.4375C13.8187 16.125 14.1844 15.9735 14.454 15.704C14.7235 15.4344 14.875 15.0687 14.875 14.6875V12.8125C14.875 12.4313 14.7235 12.0656 14.454 11.796C14.1844 11.5265 13.8187 11.375 13.4375 11.375Z" fill="black" stroke="#FF492C"/>
</svg>
