<svg width="15" height="15" viewBox="0 0 15 15" fill="none" xmlns="http://www.w3.org/2000/svg">
<path d="M5.625 1.75H6.125V1.25V0.5H8.875V3.25H6.125V2.5V2H5.625H3.125C2.49511 2 2 2.49511 2 3.125V5.625V6.125H2.5H3.25V8.875H0.5V6.125H1.25H1.75V5.625V3.125C1.75 2.37302 2.37302 1.75 3.125 1.75H5.625ZM6.875 0.75H6.375V1.25V2.5V3H6.875H8.125H8.625V2.5V1.25V0.75H8.125H6.875ZM12.5 6.125H13V5.625V3.125C13 2.49511 12.5049 2 11.875 2H10.5V1.75H11.875C12.627 1.75 13.25 2.37302 13.25 3.125V5.625V6.125H13.75H14.5V8.875H11.75V6.125H12.5ZM1.25 6.375H0.75V6.875V8.125V8.625H1.25H2.5H3V8.125V6.875V6.375H2.5H1.25ZM12.5 6.375H12V6.875V8.125V8.625H12.5H13.75H14.25V8.125V6.875V6.375H13.75H12.5ZM6.125 13.75V13.25H5.625H3.125C2.37302 13.25 1.75 12.627 1.75 11.875V10.5H2V11.875C2 12.5049 2.49511 13 3.125 13H5.625H6.125V12.5V11.75H8.875V14.5H6.125V13.75ZM6.875 12H6.375V12.5V13.75V14.25H6.875H8.125H8.625V13.75V12.5V12H8.125H6.875ZM13 11.875V10.5H13.25V11.875C13.25 12.627 12.627 13.25 11.875 13.25H10.5V13H11.875C12.5049 13 13 12.5049 13 11.875Z" fill="black" stroke="#7612FA"/>
</svg>
