<svg width="19" height="19" viewBox="0 0 19 19" fill="none" xmlns="http://www.w3.org/2000/svg">
<path d="M13.2598 13.1311C13.2524 12.7959 13.3145 12.4758 13.4538 12.1797C13.5812 11.9091 13.749 11.6652 13.9562 11.4501C14.1726 11.2254 14.4269 11.0507 14.7151 10.9271C15.0066 10.8022 15.3161 10.741 15.6386 10.7402C15.9782 10.733 16.3018 10.7942 16.5996 10.9343C16.8702 11.0617 17.1141 11.2295 17.3292 11.4367C17.5539 11.6531 17.7286 11.9074 17.8521 12.1956C17.9778 12.4888 18.0391 12.8003 18.0391 13.125C18.0391 13.4496 17.972 13.7629 17.8397 14.0605C17.7124 14.3469 17.5419 14.6008 17.3262 14.8164C17.1104 15.0323 16.8581 15.201 16.5739 15.3229C16.2826 15.4477 15.9733 15.509 15.6509 15.5098C15.3243 15.5172 15.0086 15.4533 14.709 15.3202C14.4226 15.1929 14.1688 15.0224 13.9531 14.8067C13.7372 14.5908 13.5685 14.3386 13.4467 14.0544C13.3218 13.763 13.2605 13.4535 13.2598 13.1311ZM13.2598 13.1311C13.2598 13.129 13.2598 13.127 13.2598 13.125H13.7598L13.2599 13.1372C13.2599 13.1352 13.2598 13.1331 13.2598 13.1311ZM0.513816 17C0.553986 16.2786 0.681698 15.5815 0.896338 14.9076C1.16059 14.078 1.54055 13.3218 2.03601 12.6368C2.5335 11.9489 3.12616 11.3468 3.81562 10.8297C4.497 10.3187 5.27282 9.92363 6.14714 9.64656L7.14033 9.33182L6.27344 8.7539C5.95604 8.54229 5.67584 8.29972 5.43142 8.02621C5.18339 7.74865 4.97125 7.44804 4.79442 7.12386C4.61864 6.80159 4.48384 6.46181 4.38989 6.10361C4.29692 5.74915 4.25 5.38169 4.25 5C4.25 4.37457 4.36762 3.79434 4.59994 3.2542C4.83561 2.70626 5.15751 2.2332 5.56584 1.8307C5.9769 1.42551 6.45646 1.10121 7.00834 0.857903C7.54753 0.620197 8.1263 0.5 8.75 0.5C9.37543 0.5 9.95566 0.617624 10.4958 0.849942C11.0437 1.08561 11.5168 1.40751 11.9193 1.81584C12.3245 2.2269 12.6488 2.70646 12.8921 3.25834C13.1298 3.79753 13.25 4.3763 13.25 5C13.25 5.38169 13.2031 5.74915 13.1101 6.10361C13.0153 6.46503 12.8821 6.81132 12.7103 7.14312C12.5436 7.465 12.3339 7.75815 12.0801 8.02353C11.8168 8.29876 11.5263 8.54745 11.2079 8.76971L10.3848 9.34434L11.3393 9.65512C11.606 9.74195 11.8626 9.83781 12.1091 9.94259C12.1497 9.95984 12.1903 9.97762 12.231 9.99594C12.174 10.058 12.1187 10.1213 12.065 10.1858C11.6039 9.9826 11.1274 9.82623 10.6358 9.71698C10.0153 9.5791 9.38178 9.5069 8.73579 9.50003L8.73579 9.5H8.73047C7.98527 9.5 7.26984 9.59321 6.58594 9.78163C5.90894 9.96815 5.27132 10.2313 4.67435 10.5714C4.07414 10.9134 3.53531 11.3296 3.05933 11.8196C2.5894 12.3033 2.17862 12.8386 1.82711 13.4244C1.4687 14.0217 1.20285 14.67 1.0286 15.367C0.895398 15.8998 0.809804 16.4443 0.771534 17H0.513816ZM14.1958 15.318L13.854 15.0873L13.5625 15.3789L10.7109 18.2304C10.6775 18.2639 10.6568 18.2695 10.625 18.2695C10.5932 18.2695 10.5725 18.2639 10.5391 18.2304C10.5057 18.197 10.5 18.1763 10.5 18.1445C10.5 18.1127 10.5057 18.0921 10.5391 18.0586L13.3907 15.2071L13.6822 14.9155L13.4515 14.5738C13.156 14.136 13.0098 13.6573 13.0098 13.125C13.0098 12.7603 13.0785 12.4243 13.2131 12.112C13.3512 11.7916 13.5402 11.5126 13.7813 11.2715C14.0223 11.0305 14.3013 10.8414 14.6217 10.7033C14.9345 10.5685 15.275 10.4963 15.6483 10.4902C16.0116 10.4907 16.3507 10.5594 16.6702 10.6948C16.9959 10.8328 17.272 11.0205 17.5037 11.2577C17.7412 11.5006 17.9329 11.7832 18.0789 12.1088C18.2178 12.4186 18.2891 12.7554 18.2891 13.125C18.2891 13.4897 18.2204 13.8257 18.0858 14.138C17.9477 14.4584 17.7586 14.7374 17.5175 14.9785C17.2779 15.2181 16.9969 15.407 16.6702 15.5455C16.3483 15.6819 16.0065 15.7538 15.6407 15.7598C15.1099 15.7591 14.6325 15.6128 14.1958 15.318ZM4.5 5C4.5 5.58502 4.61007 6.13839 4.83443 6.65444L12.5 5H13C13 4.99896 13 4.99792 13 4.99688C12.9996 4.41857 12.8892 3.86733 12.6666 3.34796C12.4471 2.83589 12.1449 2.38509 11.7598 1.99996C11.3748 1.61492 10.9215 1.31021 10.4051 1.08474C9.87834 0.854728 9.32396 0.743041 8.7468 0.750001C8.16296 0.750401 7.61067 0.860474 7.09556 1.08443C6.59105 1.30379 6.14262 1.60491 5.75335 1.98685C5.35933 2.37343 5.05242 2.82958 4.8324 3.35031C4.61074 3.87489 4.5 4.42616 4.5 5Z" fill="transparent" stroke="#FF0B71"/>
</svg>
