<svg width="12" height="16" viewBox="0 0 12 16" fill="none" xmlns="http://www.w3.org/2000/svg">
<mask id="path-1-inside-1_61_46" fill="white">
<path d="M10.2857 15.6799C10.855 15.6799 11.265 15.2614 11.265 14.7007V1.34959C11.265 0.788875 10.855 0.319946 10.2689 0.319946C9.8589 0.319946 9.59105 0.521018 9.13891 0.922804L5.20462 4.41316C5.15462 4.46316 5.07926 4.48852 4.99569 4.48852H2.50962C1.32069 4.48852 0.734619 5.0828 0.734619 6.34673V9.67852C0.734619 10.9428 1.32069 11.5367 2.50962 11.5367H4.99533C5.07926 11.5367 5.15462 11.5617 5.20462 11.6121L9.13891 15.1364C9.54891 15.5042 9.87569 15.6799 10.2857 15.6799ZM9.79998 13.9142C9.75819 13.9142 9.70819 13.8892 9.65783 13.8389L5.94998 10.4985C5.74926 10.3142 5.58212 10.2724 5.35569 10.2724H2.56855C2.24212 10.2724 2.08283 10.1217 2.08283 9.78673V6.2378C2.08283 5.91137 2.24212 5.75245 2.56855 5.75245H5.35569C5.58176 5.75245 5.74069 5.71887 5.94998 5.52637L9.65819 2.16138C9.69998 2.12816 9.75033 2.09459 9.80069 2.09459C9.87569 2.09459 9.91783 2.14459 9.91783 2.21173V13.7882C9.91783 13.8635 9.87605 13.9139 9.80069 13.9139"/>
</mask>
<path d="M10.2857 15.6799C10.855 15.6799 11.265 15.2614 11.265 14.7007V1.34959C11.265 0.788875 10.855 0.319946 10.2689 0.319946C9.8589 0.319946 9.59105 0.521018 9.13891 0.922804L5.20462 4.41316C5.15462 4.46316 5.07926 4.48852 4.99569 4.48852H2.50962C1.32069 4.48852 0.734619 5.0828 0.734619 6.34673V9.67852C0.734619 10.9428 1.32069 11.5367 2.50962 11.5367H4.99533C5.07926 11.5367 5.15462 11.5617 5.20462 11.6121L9.13891 15.1364C9.54891 15.5042 9.87569 15.6799 10.2857 15.6799ZM9.79998 13.9142C9.75819 13.9142 9.70819 13.8892 9.65783 13.8389L5.94998 10.4985C5.74926 10.3142 5.58212 10.2724 5.35569 10.2724H2.56855C2.24212 10.2724 2.08283 10.1217 2.08283 9.78673V6.2378C2.08283 5.91137 2.24212 5.75245 2.56855 5.75245H5.35569C5.58176 5.75245 5.74069 5.71887 5.94998 5.52637L9.65819 2.16138C9.69998 2.12816 9.75033 2.09459 9.80069 2.09459C9.87569 2.09459 9.91783 2.14459 9.91783 2.21173V13.7882C9.91783 13.8635 9.87605 13.9139 9.80069 13.9139" fill="black"/>
<path d="M9.13891 0.922804L9.80255 1.67085L9.80316 1.67031L9.13891 0.922804ZM5.20462 4.41316L4.54098 3.66511L4.51863 3.68493L4.49751 3.70605L5.20462 4.41316ZM5.20462 11.6121L4.495 12.3167L4.51561 12.3374L4.53739 12.3569L5.20462 11.6121ZM9.13891 15.1364L9.80672 14.3921L9.80614 14.3915L9.13891 15.1364ZM9.65783 13.8389L10.3649 13.1318L10.3465 13.1133L10.3272 13.0959L9.65783 13.8389ZM5.94998 10.4985L5.27363 11.2352L5.28065 11.2415L5.94998 10.4985ZM5.94998 5.52637L5.27796 4.78581L5.273 4.79037L5.94998 5.52637ZM9.65819 2.16138L9.03595 1.37855L9.01038 1.39888L8.98619 1.42083L9.65819 2.16138ZM10.2857 16.6799C11.4131 16.6799 12.265 15.8079 12.265 14.7007H10.265C10.265 14.7182 10.2619 14.7228 10.2638 14.7182C10.2657 14.7136 10.2704 14.7048 10.2795 14.6956C10.2887 14.6864 10.2979 14.6812 10.3034 14.6789C10.309 14.6767 10.3046 14.6799 10.2857 14.6799V16.6799ZM12.265 14.7007V1.34959H10.265V14.7007H12.265ZM12.265 1.34959C12.265 0.297563 11.4663 -0.680054 10.2689 -0.680054V1.31995C10.2753 1.31995 10.2779 1.32056 10.2775 1.32047C10.2771 1.32039 10.275 1.3199 10.2719 1.31855C10.2652 1.3156 10.2601 1.31151 10.2575 1.30874C10.2524 1.30337 10.265 1.31322 10.265 1.34959H12.265ZM10.2689 -0.680054C9.4358 -0.680054 8.90612 -0.208114 8.47465 0.175296L9.80316 1.67031C10.0344 1.46484 10.144 1.38025 10.2183 1.33757C10.2458 1.32174 10.2551 1.31989 10.2523 1.32067C10.2485 1.32176 10.251 1.31995 10.2689 1.31995V-0.680054ZM8.47526 0.174754L4.54098 3.66511L5.86826 5.16121L9.80255 1.67085L8.47526 0.174754ZM4.49751 3.70605C4.68496 3.5186 4.89414 3.48852 4.99569 3.48852V5.48852C5.26439 5.48852 5.62428 5.40772 5.91173 5.12027L4.49751 3.70605ZM4.99569 3.48852H2.50962V5.48852H4.99569V3.48852ZM2.50962 3.48852C1.76101 3.48852 1.00793 3.67666 0.455863 4.2501C-0.0889097 4.81597 -0.265381 5.57917 -0.265381 6.34673H1.73462C1.73462 5.85036 1.85118 5.68446 1.89668 5.6372C1.93488 5.59752 2.0693 5.48852 2.50962 5.48852V3.48852ZM-0.265381 6.34673V9.67852H1.73462V6.34673H-0.265381ZM-0.265381 9.67852C-0.265381 10.4462 -0.0889429 11.2095 0.455914 11.7753C1.00804 12.3488 1.76116 12.5367 2.50962 12.5367V10.5367C2.06915 10.5367 1.93477 10.4277 1.89663 10.3881C1.85122 10.341 1.73462 10.1751 1.73462 9.67852H-0.265381ZM2.50962 12.5367H4.99533V10.5367H2.50962V12.5367ZM4.99533 12.5367C4.8983 12.5367 4.68544 12.5085 4.495 12.3167L5.91424 10.9075C5.6238 10.615 5.26023 10.5367 4.99533 10.5367V12.5367ZM4.53739 12.3569L8.47168 15.8812L9.80614 14.3915L5.87185 10.8672L4.53739 12.3569ZM8.47109 15.8807C8.95983 16.3192 9.51762 16.6799 10.2857 16.6799V14.6799C10.2374 14.6799 10.2028 14.6728 10.151 14.6475C10.0837 14.6146 9.97794 14.5457 9.80672 14.3921L8.47109 15.8807ZM9.79998 12.9142C9.97711 12.9142 10.1128 12.9661 10.1951 13.0091C10.2789 13.0528 10.3341 13.1009 10.3649 13.1318L8.95073 14.546C9.08861 14.6839 9.37889 14.9142 9.79998 14.9142V12.9142ZM10.3272 13.0959L6.61931 9.75555L5.28065 11.2415L8.98851 14.5818L10.3272 13.0959ZM6.62629 9.76191C6.44832 9.5985 6.24262 9.46039 5.99432 9.37304C5.75172 9.2877 5.52856 9.27245 5.35569 9.27245V11.2724C5.40925 11.2724 5.38288 11.2781 5.33063 11.2597C5.30523 11.2508 5.28499 11.2402 5.27189 11.2319C5.26006 11.2245 5.26042 11.223 5.27366 11.2351L6.62629 9.76191ZM5.35569 9.27245H2.56855V11.2724H5.35569V9.27245ZM2.56855 9.27245C2.53976 9.27245 2.72415 9.26432 2.90564 9.44339C3.08969 9.625 3.08283 9.81304 3.08283 9.78673H1.08283C1.08283 10.0954 1.15561 10.5263 1.50092 10.867C1.84365 11.2052 2.27091 11.2724 2.56855 11.2724V9.27245ZM3.08283 9.78673V6.2378H1.08283V9.78673H3.08283ZM3.08283 6.2378C3.08283 6.22257 3.08649 6.40392 2.90999 6.58021C2.73371 6.7563 2.55276 6.75245 2.56855 6.75245V4.75245C2.2579 4.75245 1.8341 4.82806 1.49657 5.16522C1.15882 5.50258 1.08283 5.92661 1.08283 6.2378H3.08283ZM2.56855 6.75245H5.35569V4.75245H2.56855V6.75245ZM5.35569 6.75245C5.51338 6.75245 5.73775 6.74224 5.98502 6.657C6.24002 6.5691 6.4479 6.42708 6.62695 6.26238L5.273 4.79037C5.25609 4.80593 5.25442 4.80513 5.26677 4.79733C5.28084 4.78844 5.30378 4.77635 5.33323 4.76619C5.3922 4.74587 5.42407 4.75245 5.35569 4.75245V6.75245ZM6.62198 6.26692L10.3302 2.90192L8.98619 1.42083L5.27797 4.78583L6.62198 6.26692ZM10.2804 2.9442C10.2792 2.94522 10.2707 2.95191 10.2571 2.96125C10.2437 2.97045 10.2202 2.98577 10.1878 3.00261C10.1312 3.0321 9.99381 3.09459 9.80069 3.09459V1.09459C9.36355 1.09459 9.0632 1.35689 9.03595 1.37855L10.2804 2.9442ZM9.80069 3.09459C9.60648 3.09459 9.35934 3.0234 9.16347 2.81787C8.97496 2.62006 8.91783 2.38595 8.91783 2.21173H10.9178C10.9178 1.97037 10.8396 1.67769 10.6113 1.43809C10.3756 1.19078 10.0699 1.09459 9.80069 1.09459V3.09459ZM8.91783 2.21173V13.7882H10.9178V2.21173H8.91783ZM8.91783 13.7882C8.91783 13.648 8.95779 13.4169 9.14521 13.2092C9.34535 12.9875 9.60418 12.9139 9.80069 12.9139V14.9139C10.0726 14.9139 10.39 14.8151 10.6298 14.5493C10.857 14.2977 10.9178 14.0037 10.9178 13.7882H8.91783Z" fill="#FF0B80" mask="url(#path-1-inside-1_61_46)"/>
</svg>
