<svg width="19" height="20" viewBox="0 0 19 20" fill="none" xmlns="http://www.w3.org/2000/svg">
<path d="M6.98103 5.1761L7.58919 4.84162L8.29081 4.45573L7.63611 3.9947C6.7251 3.35318 5.45743 3.23552 4.41955 3.6157C3.35003 4.00746 2.48587 4.94728 2.50272 6.40305L2.50282 6.4119L2.50324 6.42075C2.58028 8.0585 3.57403 9.56216 4.731 10.9103C5.31637 11.5925 5.9638 12.257 6.59108 12.8963C6.63231 12.9383 6.67345 12.9802 6.71447 13.022C7.30201 13.6205 7.86629 14.1952 8.3611 14.7581L8.37452 14.7734L8.38913 14.7875C8.68042 15.0691 8.84022 15.3104 9.04404 15.6183C9.12305 15.7376 9.20867 15.8669 9.31112 16.0124L9.70781 16.5758L10.1204 16.024C10.2298 15.8777 10.32 15.7486 10.4033 15.6293C10.6018 15.3454 10.7613 15.1172 11.0477 14.8451C11.4591 14.4544 11.9078 14.0647 12.3795 13.6588C12.4344 13.6115 12.4897 13.5639 12.5453 13.5162C12.9638 13.1564 13.3976 12.7836 13.8257 12.3943L13.8258 12.3943C14.7944 11.5137 15.7041 10.5767 16.3657 9.59626C17.027 8.61626 17.466 7.55495 17.431 6.43631L17.431 6.43625C17.3961 5.32771 17.0747 4.4335 16.5441 3.76777C16.2198 3.36079 15.8261 3.05034 15.393 2.83109C15.583 2.85024 15.7714 2.88372 15.9552 2.93282C16.5668 3.09615 17.1126 3.42807 17.5086 3.96563C17.9051 4.50387 18.1794 5.28635 18.1794 6.3973V6.40515L18.1796 6.41299C18.2619 9.03418 16.369 11.1343 14.355 12.9656C13.9025 13.377 13.447 13.7692 13.0077 14.1475C12.9665 14.183 12.9255 14.2183 12.8847 14.2535C12.4107 14.6619 11.9556 15.0563 11.5609 15.4311L11.5594 15.4325C10.8877 16.0757 10.3115 17.0072 9.91255 17.7461C9.85807 17.847 9.80647 17.9452 9.75795 18.0395C9.71747 17.9516 9.67415 17.8604 9.62796 17.7666C9.25455 17.0084 8.67678 16.0451 7.87631 15.3193C7.4368 14.8951 6.89092 14.4274 6.32486 13.9425C5.9291 13.6035 5.52348 13.256 5.13746 12.909C3.17282 11.1427 1.29177 9.13156 1.20567 6.43587C1.12482 3.90415 2.73886 2.19377 4.63025 1.80651L4.63028 1.80651C6.06326 1.513 7.91857 1.84626 9.21395 2.89402L9.64531 3.24292L9.94763 2.77773L10.4545 1.99778L11.971 7.25785C10.3492 6.32722 8.74041 5.6176 6.98103 5.1761Z" fill="black" stroke="#7612FA"/>
</svg>
