<svg width="18" height="18" viewBox="0 0 18 18" fill="none" xmlns="http://www.w3.org/2000/svg">
<mask id="path-1-inside-1_62_56" fill="white">
<path d="M9.00004 5.25004C8.25836 5.25004 7.53333 5.46997 6.91665 5.88203C6.29996 6.29408 5.81932 6.87975 5.53549 7.56497C5.25166 8.2502 5.1774 9.0042 5.32209 9.73162C5.46679 10.4591 5.82394 11.1272 6.34839 11.6517C6.87283 12.1761 7.54102 12.5333 8.26845 12.678C8.99588 12.8227 9.74988 12.7484 10.4351 12.4646C11.1203 12.1808 11.706 11.7001 12.118 11.0834C12.5301 10.4667 12.75 9.74172 12.75 9.00004C12.749 8.00579 12.3536 7.05256 11.6505 6.34953C10.9475 5.64649 9.99428 5.25107 9.00004 5.25004ZM9.00004 11.5C8.50558 11.5 8.02223 11.3534 7.61111 11.0787C7.19999 10.804 6.87956 10.4136 6.69034 9.95674C6.50112 9.49993 6.45161 8.99726 6.54807 8.51231C6.64454 8.02736 6.88264 7.5819 7.23227 7.23227C7.5819 6.88264 8.02736 6.64454 8.51231 6.54807C8.99726 6.45161 9.49993 6.50112 9.95674 6.69034C10.4136 6.87956 10.804 7.19999 11.0787 7.61111C11.3534 8.02223 11.5 8.50558 11.5 9.00004C11.5 9.66308 11.2366 10.299 10.7678 10.7678C10.299 11.2366 9.66308 11.5 9.00004 11.5ZM15.875 9.16879C15.8782 9.05629 15.8782 8.94379 15.875 8.83129L17.0407 7.37504C17.1018 7.29858 17.1441 7.20883 17.1642 7.11303C17.1843 7.01722 17.1816 6.91804 17.1563 6.82347C16.9652 6.10519 16.6794 5.41554 16.3063 4.77269C16.2574 4.68857 16.1896 4.617 16.1082 4.5637C16.0269 4.5104 15.9342 4.47683 15.8375 4.46566L13.9844 4.25941C13.9073 4.17816 13.8292 4.10004 13.75 4.02504L13.5313 2.16722C13.52 2.07051 13.4863 1.97777 13.4329 1.89639C13.3795 1.815 13.3077 1.74723 13.2235 1.69847C12.5804 1.32609 11.8908 1.04053 11.1727 0.849254C11.0781 0.824096 10.9788 0.821523 10.883 0.841742C10.7872 0.861962 10.6975 0.904408 10.6211 0.965661L9.16879 2.12504H8.83129L7.37504 0.961754C7.29858 0.900636 7.20883 0.858331 7.11303 0.838248C7.01722 0.818164 6.91804 0.820864 6.82347 0.846129C6.10531 1.03756 5.4157 1.32338 4.77269 1.69613C4.68857 1.74498 4.617 1.81279 4.5637 1.89417C4.5104 1.97555 4.47683 2.06824 4.46566 2.16488L4.25941 4.02113C4.17816 4.09873 4.10004 4.17686 4.02504 4.2555L2.16722 4.46879C2.07051 4.48004 1.97777 4.51373 1.89639 4.56717C1.815 4.62061 1.74723 4.69233 1.69847 4.7766C1.32609 5.4197 1.04053 6.10929 0.849254 6.82738C0.824096 6.92201 0.821523 7.02122 0.841742 7.11703C0.861962 7.21284 0.904408 7.30255 0.965661 7.37894L2.12504 8.83129V9.16879L0.961754 10.625C0.900636 10.7015 0.858331 10.7912 0.838248 10.887C0.818164 10.9828 0.820864 11.082 0.846129 11.1766C1.03721 11.8949 1.32306 12.5845 1.69613 13.2274C1.74498 13.3115 1.81279 13.3831 1.89417 13.4364C1.97555 13.4897 2.06824 13.5232 2.16488 13.5344L4.018 13.7407C4.09561 13.8219 4.17373 13.9 4.25238 13.975L4.46879 15.8328C4.48004 15.9296 4.51373 16.0223 4.56717 16.1037C4.62061 16.1851 4.69233 16.2528 4.7766 16.3016C5.4197 16.674 6.10929 16.9595 6.82738 17.1508C6.92201 17.176 7.02122 17.1785 7.11703 17.1583C7.21284 17.1381 7.30255 17.0957 7.37894 17.0344L8.83129 15.875C8.94379 15.8782 9.05629 15.8782 9.16879 15.875L10.625 17.0407C10.7015 17.1018 10.7912 17.1441 10.887 17.1642C10.9828 17.1843 11.082 17.1816 11.1766 17.1563C11.8949 16.9652 12.5845 16.6794 13.2274 16.3063C13.3115 16.2574 13.3831 16.1896 13.4364 16.1082C13.4897 16.0269 13.5232 15.9342 13.5344 15.8375L13.7407 13.9844C13.8219 13.9073 13.9 13.8292 13.975 13.75L15.8328 13.5313C15.9296 13.52 16.0223 13.4863 16.1037 13.4329C16.1851 13.3795 16.2528 13.3077 16.3016 13.2235C16.674 12.5804 16.9595 11.8908 17.1508 11.1727C17.176 11.0781 17.1785 10.9788 17.1583 10.883C17.1381 10.7872 17.0957 10.6975 17.0344 10.6211L15.875 9.16879ZM14.6172 8.66097C14.6305 8.88682 14.6305 9.11325 14.6172 9.3391C14.6079 9.49372 14.6564 9.64629 14.7532 9.76722L15.8618 11.1524C15.7345 11.5567 15.5717 11.9488 15.375 12.3243L13.6094 12.5243C13.4556 12.5413 13.3137 12.6148 13.211 12.7305C13.0606 12.8996 12.9004 13.0598 12.7313 13.2102C12.6156 13.3129 12.5421 13.4549 12.525 13.6086L12.3289 15.3727C11.9535 15.5694 11.5614 15.7323 11.1571 15.8594L9.77113 14.7508C9.66023 14.6622 9.52246 14.614 9.3805 14.6141H9.343C9.11716 14.6274 8.89073 14.6274 8.66488 14.6141C8.51026 14.6048 8.35769 14.6532 8.23675 14.75L6.84769 15.8594C6.44342 15.7322 6.05125 15.5693 5.67582 15.3727L5.47582 13.6094C5.45875 13.4556 5.38526 13.3137 5.26957 13.211C5.10043 13.0606 4.94026 12.9004 4.78988 12.7313C4.68717 12.6156 4.5452 12.5421 4.39144 12.525L2.62738 12.3282C2.43065 11.9528 2.26777 11.5606 2.14066 11.1563L3.24925 9.77035C3.34606 9.64942 3.3945 9.49685 3.38519 9.34222C3.37191 9.11638 3.37191 8.88994 3.38519 8.6641C3.3945 8.50947 3.34606 8.35691 3.24925 8.23597L2.14066 6.84769C2.26787 6.44342 2.43075 6.05125 2.62738 5.67582L4.39066 5.47582C4.54442 5.45875 4.68639 5.38526 4.7891 5.26957C4.93948 5.10043 5.09965 4.94026 5.26879 4.78988C5.38494 4.6871 5.45873 4.54481 5.47582 4.39066L5.67191 2.62738C6.0473 2.43065 6.43948 2.26777 6.84379 2.14066L8.22972 3.24925C8.35065 3.34606 8.50323 3.3945 8.65785 3.38519C8.8837 3.37191 9.11013 3.37191 9.33597 3.38519C9.4906 3.3945 9.64317 3.34606 9.7641 3.24925L11.1524 2.14066C11.5567 2.26787 11.9488 2.43075 12.3243 2.62738L12.5243 4.39066C12.5413 4.54442 12.6148 4.68639 12.7305 4.7891C12.8996 4.93948 13.0598 5.09965 13.2102 5.26879C13.3129 5.38448 13.4549 5.45797 13.6086 5.47504L15.3727 5.67113C15.5694 6.04652 15.7323 6.4387 15.8594 6.843L14.7508 8.22894C14.6531 8.35089 14.6046 8.50503 14.6149 8.66097H14.6172Z"/>
</mask>
<path d="M9.00004 5.25004C8.25836 5.25004 7.53333 5.46997 6.91665 5.88203C6.29996 6.29408 5.81932 6.87975 5.53549 7.56497C5.25166 8.2502 5.1774 9.0042 5.32209 9.73162C5.46679 10.4591 5.82394 11.1272 6.34839 11.6517C6.87283 12.1761 7.54102 12.5333 8.26845 12.678C8.99588 12.8227 9.74988 12.7484 10.4351 12.4646C11.1203 12.1808 11.706 11.7001 12.118 11.0834C12.5301 10.4667 12.75 9.74172 12.75 9.00004C12.749 8.00579 12.3536 7.05256 11.6505 6.34953C10.9475 5.64649 9.99428 5.25107 9.00004 5.25004ZM9.00004 11.5C8.50558 11.5 8.02223 11.3534 7.61111 11.0787C7.19999 10.804 6.87956 10.4136 6.69034 9.95674C6.50112 9.49993 6.45161 8.99726 6.54807 8.51231C6.64454 8.02736 6.88264 7.5819 7.23227 7.23227C7.5819 6.88264 8.02736 6.64454 8.51231 6.54807C8.99726 6.45161 9.49993 6.50112 9.95674 6.69034C10.4136 6.87956 10.804 7.19999 11.0787 7.61111C11.3534 8.02223 11.5 8.50558 11.5 9.00004C11.5 9.66308 11.2366 10.299 10.7678 10.7678C10.299 11.2366 9.66308 11.5 9.00004 11.5ZM15.875 9.16879C15.8782 9.05629 15.8782 8.94379 15.875 8.83129L17.0407 7.37504C17.1018 7.29858 17.1441 7.20883 17.1642 7.11303C17.1843 7.01722 17.1816 6.91804 17.1563 6.82347C16.9652 6.10519 16.6794 5.41554 16.3063 4.77269C16.2574 4.68857 16.1896 4.617 16.1082 4.5637C16.0269 4.5104 15.9342 4.47683 15.8375 4.46566L13.9844 4.25941C13.9073 4.17816 13.8292 4.10004 13.75 4.02504L13.5313 2.16722C13.52 2.07051 13.4863 1.97777 13.4329 1.89639C13.3795 1.815 13.3077 1.74723 13.2235 1.69847C12.5804 1.32609 11.8908 1.04053 11.1727 0.849254C11.0781 0.824096 10.9788 0.821523 10.883 0.841742C10.7872 0.861962 10.6975 0.904408 10.6211 0.965661L9.16879 2.12504H8.83129L7.37504 0.961754C7.29858 0.900636 7.20883 0.858331 7.11303 0.838248C7.01722 0.818164 6.91804 0.820864 6.82347 0.846129C6.10531 1.03756 5.4157 1.32338 4.77269 1.69613C4.68857 1.74498 4.617 1.81279 4.5637 1.89417C4.5104 1.97555 4.47683 2.06824 4.46566 2.16488L4.25941 4.02113C4.17816 4.09873 4.10004 4.17686 4.02504 4.2555L2.16722 4.46879C2.07051 4.48004 1.97777 4.51373 1.89639 4.56717C1.815 4.62061 1.74723 4.69233 1.69847 4.7766C1.32609 5.4197 1.04053 6.10929 0.849254 6.82738C0.824096 6.92201 0.821523 7.02122 0.841742 7.11703C0.861962 7.21284 0.904408 7.30255 0.965661 7.37894L2.12504 8.83129V9.16879L0.961754 10.625C0.900636 10.7015 0.858331 10.7912 0.838248 10.887C0.818164 10.9828 0.820864 11.082 0.846129 11.1766C1.03721 11.8949 1.32306 12.5845 1.69613 13.2274C1.74498 13.3115 1.81279 13.3831 1.89417 13.4364C1.97555 13.4897 2.06824 13.5232 2.16488 13.5344L4.018 13.7407C4.09561 13.8219 4.17373 13.9 4.25238 13.975L4.46879 15.8328C4.48004 15.9296 4.51373 16.0223 4.56717 16.1037C4.62061 16.1851 4.69233 16.2528 4.7766 16.3016C5.4197 16.674 6.10929 16.9595 6.82738 17.1508C6.92201 17.176 7.02122 17.1785 7.11703 17.1583C7.21284 17.1381 7.30255 17.0957 7.37894 17.0344L8.83129 15.875C8.94379 15.8782 9.05629 15.8782 9.16879 15.875L10.625 17.0407C10.7015 17.1018 10.7912 17.1441 10.887 17.1642C10.9828 17.1843 11.082 17.1816 11.1766 17.1563C11.8949 16.9652 12.5845 16.6794 13.2274 16.3063C13.3115 16.2574 13.3831 16.1896 13.4364 16.1082C13.4897 16.0269 13.5232 15.9342 13.5344 15.8375L13.7407 13.9844C13.8219 13.9073 13.9 13.8292 13.975 13.75L15.8328 13.5313C15.9296 13.52 16.0223 13.4863 16.1037 13.4329C16.1851 13.3795 16.2528 13.3077 16.3016 13.2235C16.674 12.5804 16.9595 11.8908 17.1508 11.1727C17.176 11.0781 17.1785 10.9788 17.1583 10.883C17.1381 10.7872 17.0957 10.6975 17.0344 10.6211L15.875 9.16879ZM14.6172 8.66097C14.6305 8.88682 14.6305 9.11325 14.6172 9.3391C14.6079 9.49372 14.6564 9.64629 14.7532 9.76722L15.8618 11.1524C15.7345 11.5567 15.5717 11.9488 15.375 12.3243L13.6094 12.5243C13.4556 12.5413 13.3137 12.6148 13.211 12.7305C13.0606 12.8996 12.9004 13.0598 12.7313 13.2102C12.6156 13.3129 12.5421 13.4549 12.525 13.6086L12.3289 15.3727C11.9535 15.5694 11.5614 15.7323 11.1571 15.8594L9.77113 14.7508C9.66023 14.6622 9.52246 14.614 9.3805 14.6141H9.343C9.11716 14.6274 8.89073 14.6274 8.66488 14.6141C8.51026 14.6048 8.35769 14.6532 8.23675 14.75L6.84769 15.8594C6.44342 15.7322 6.05125 15.5693 5.67582 15.3727L5.47582 13.6094C5.45875 13.4556 5.38526 13.3137 5.26957 13.211C5.10043 13.0606 4.94026 12.9004 4.78988 12.7313C4.68717 12.6156 4.5452 12.5421 4.39144 12.525L2.62738 12.3282C2.43065 11.9528 2.26777 11.5606 2.14066 11.1563L3.24925 9.77035C3.34606 9.64942 3.3945 9.49685 3.38519 9.34222C3.37191 9.11638 3.37191 8.88994 3.38519 8.6641C3.3945 8.50947 3.34606 8.35691 3.24925 8.23597L2.14066 6.84769C2.26787 6.44342 2.43075 6.05125 2.62738 5.67582L4.39066 5.47582C4.54442 5.45875 4.68639 5.38526 4.7891 5.26957C4.93948 5.10043 5.09965 4.94026 5.26879 4.78988C5.38494 4.6871 5.45873 4.54481 5.47582 4.39066L5.67191 2.62738C6.0473 2.43065 6.43948 2.26777 6.84379 2.14066L8.22972 3.24925C8.35065 3.34606 8.50323 3.3945 8.65785 3.38519C8.8837 3.37191 9.11013 3.37191 9.33597 3.38519C9.4906 3.3945 9.64317 3.34606 9.7641 3.24925L11.1524 2.14066C11.5567 2.26787 11.9488 2.43075 12.3243 2.62738L12.5243 4.39066C12.5413 4.54442 12.6148 4.68639 12.7305 4.7891C12.8996 4.93948 13.0598 5.09965 13.2102 5.26879C13.3129 5.38448 13.4549 5.45797 13.6086 5.47504L15.3727 5.67113C15.5694 6.04652 15.7323 6.4387 15.8594 6.843L14.7508 8.22894C14.6531 8.35089 14.6046 8.50503 14.6149 8.66097H14.6172Z" fill="black" stroke="#FF0B71" stroke-width="2" mask="url(#path-1-inside-1_62_56)"/>
</svg>
