<svg width="20" height="20" viewBox="0 0 20 20" fill="none" xmlns="http://www.w3.org/2000/svg">
<path d="M6.12347 0.495602L6.12454 0.495458C6.17811 0.488233 6.23262 0.497304 6.28097 0.521489C6.32931 0.545674 6.36926 0.583853 6.39561 0.631057C6.42196 0.678261 6.43348 0.732303 6.42869 0.786149C6.42389 0.839995 6.403 0.891151 6.36873 0.932958L6.3687 0.932935L6.36497 0.937595L3.28805 4.78375L3.28801 4.78372L3.28359 4.78941C3.24188 4.84312 3.18138 4.87906 3.11425 4.88999C3.04713 4.90093 2.97835 4.88606 2.92174 4.84837L0.614298 3.31007L0.614301 3.31007L0.612426 3.30883C0.581663 3.28852 0.555213 3.26234 0.534593 3.23178C0.513974 3.20122 0.499591 3.16689 0.492271 3.13076C0.48495 3.09464 0.484836 3.05742 0.491934 3.02124C0.499033 2.98507 0.513204 2.95066 0.533635 2.91997C0.554067 2.88929 0.580355 2.86294 0.610993 2.84244C0.641631 2.82194 0.676016 2.8077 0.712173 2.80052C0.74833 2.79334 0.785549 2.79337 0.821695 2.80062C0.85784 2.80786 0.892199 2.82216 0.922801 2.84272L0.924213 2.84366L2.65498 3.99751L3.03737 4.25244L3.32356 3.89284L5.94433 0.599759L5.94434 0.599769L5.94685 0.596563C5.99025 0.541106 6.05366 0.504861 6.12347 0.495602ZM6.12347 7.41868L6.12398 7.41861C6.17753 7.41145 6.23199 7.42057 6.2803 7.44478C6.3286 7.46899 6.3685 7.50717 6.39481 7.55436C6.42112 7.60155 6.43262 7.65556 6.42782 7.70938C6.42302 7.76319 6.40214 7.81432 6.3679 7.85611L6.36787 7.85609L6.36421 7.86067L3.28728 11.7068L3.28724 11.7068L3.28282 11.7125C3.24111 11.7662 3.18061 11.8021 3.11348 11.8131C3.04646 11.824 2.97778 11.8092 2.92122 11.7716C2.92121 11.7716 2.9212 11.7716 2.92118 11.7716C2.92111 11.7715 2.92105 11.7715 2.92098 11.7714L0.613529 10.2331L0.613472 10.2331C0.551632 10.1919 0.508697 10.1278 0.494113 10.0549C0.479528 9.98206 0.494489 9.90638 0.535703 9.84454C0.576918 9.7827 0.64101 9.73977 0.71388 9.72518C0.786728 9.7106 0.862383 9.72555 0.924213 9.76674C0.924232 9.76675 0.924251 9.76676 0.92427 9.76678L2.65498 10.9206L3.03737 11.1755L3.32356 10.8159L5.94433 7.52284L5.94434 7.52285L5.94685 7.51964C5.99025 7.46418 6.05366 7.42794 6.12347 7.41868ZM6.12347 14.3418L6.12398 14.3417C6.17753 14.3345 6.23199 14.3436 6.2803 14.3679C6.3286 14.3921 6.3685 14.4302 6.39481 14.4774C6.42112 14.5246 6.43262 14.5786 6.42782 14.6325C6.42302 14.6863 6.40214 14.7374 6.3679 14.7792L6.36787 14.7792L6.36421 14.7838L3.28728 18.6299L3.28724 18.6299L3.28282 18.6356C3.24111 18.6893 3.18061 18.7252 3.11348 18.7361C3.04636 18.7471 2.97758 18.7322 2.92098 18.6945L0.613529 17.1562L0.613472 17.1562C0.551632 17.115 0.508697 17.0509 0.494113 16.978C0.479528 16.9051 0.494489 16.8295 0.535703 16.7676C0.576917 16.7058 0.641009 16.6628 0.71388 16.6483C0.749965 16.641 0.787116 16.641 0.823211 16.6481C0.859309 16.6553 0.893649 16.6694 0.92427 16.6899L2.65498 17.8437L3.03737 18.0986L3.32356 17.739L5.94433 14.4459L5.94434 14.4459L5.94685 14.4427C5.99025 14.3873 6.05366 14.351 6.12347 14.3418ZM19.5 3.3461H9.73079V2.80764H19.5V3.3461ZM19.5 10.2692H9.73079V9.73071H19.5V10.2692ZM19.5 17.1923H9.73079V16.6538H19.5V17.1923Z" fill="black" stroke="#45C4F9"/>
</svg>
