<svg width="20" height="19" viewBox="0 0 20 19" fill="none" xmlns="http://www.w3.org/2000/svg">
<path d="M14.1762 2.12084C12.9077 1.38459 11.4667 0.997834 9.99996 1.00001C5.39746 1.00001 1.66663 4.73084 1.66663 9.33334C1.66663 13.9358 5.39746 17.6667 9.99996 17.6667C14.6025 17.6667 18.3333 13.9358 18.3333 9.33334C18.3333 7.82209 17.9308 6.40418 17.2275 5.18251" stroke="#08CF4C" stroke-width="1.66667" stroke-linecap="round" stroke-linejoin="round"/>
<path d="M13.3124 6.02087C13.3124 6.02087 11.9007 9.78962 11.2499 10.4405C10.9373 10.753 10.5134 10.9286 10.0714 10.9286C9.62933 10.9286 9.2054 10.753 8.89283 10.4405C8.58026 10.1279 8.40466 9.70395 8.40466 9.26192C8.40466 8.81988 8.58026 8.39594 8.89283 8.08337C9.54366 7.43254 13.3124 6.02087 13.3124 6.02087Z" stroke="#08CF4C" stroke-width="1.66667" stroke-linejoin="round"/>
</svg>
