<svg width="17" height="17" viewBox="0 0 17 17" fill="none" xmlns="http://www.w3.org/2000/svg">
<mask id="path-1-inside-1_62_60" fill="white">
<path d="M11.9667 10C12.0333 9.45 12.0833 8.9 12.0833 8.33333C12.0833 7.76667 12.0333 7.21667 11.9667 6.66667H14.7833C14.9167 7.2 15 7.75833 15 8.33333C15 8.90833 14.9167 9.46667 14.7833 10M10.4917 14.6333C10.9917 13.7083 11.375 12.7083 11.6417 11.6667H14.1C13.2926 13.0569 12.0118 14.11 10.4917 14.6333ZM10.2833 10H6.38333C6.3 9.45 6.25 8.9 6.25 8.33333C6.25 7.76667 6.3 7.20833 6.38333 6.66667H10.2833C10.3583 7.20833 10.4167 7.76667 10.4167 8.33333C10.4167 8.9 10.3583 9.45 10.2833 10ZM8.33333 14.9667C7.64167 13.9667 7.08333 12.8583 6.74167 11.6667H9.925C9.58333 12.8583 9.025 13.9667 8.33333 14.9667ZM5 5H2.56667C3.36571 3.60601 4.64566 2.55124 6.16667 2.03333C5.66667 2.95833 5.29167 3.95833 5 5ZM2.56667 11.6667H5C5.29167 12.7083 5.66667 13.7083 6.16667 14.6333C4.64885 14.1097 3.37071 13.0564 2.56667 11.6667ZM1.88333 10C1.75 9.46667 1.66667 8.90833 1.66667 8.33333C1.66667 7.75833 1.75 7.2 1.88333 6.66667H4.7C4.63333 7.21667 4.58333 7.76667 4.58333 8.33333C4.58333 8.9 4.63333 9.45 4.7 10M8.33333 1.69167C9.025 2.69167 9.58333 3.80833 9.925 5H6.74167C7.08333 3.80833 7.64167 2.69167 8.33333 1.69167ZM14.1 5H11.6417C11.3809 3.96788 10.9946 2.97158 10.4917 2.03333C12.025 2.55833 13.3 3.61667 14.1 5ZM8.33333 0C3.725 0 0 3.75 0 8.33333C0 10.5435 0.877974 12.6631 2.44078 14.2259C3.2146 14.9997 4.13326 15.6135 5.1443 16.0323C6.15535 16.4511 7.23898 16.6667 8.33333 16.6667C10.5435 16.6667 12.6631 15.7887 14.2259 14.2259C15.7887 12.6631 16.6667 10.5435 16.6667 8.33333C16.6667 7.23898 16.4511 6.15535 16.0323 5.1443C15.6135 4.13326 14.9997 3.2146 14.2259 2.44078C13.4521 1.66696 12.5334 1.05313 11.5224 0.634337C10.5113 0.215548 9.42768 0 8.33333 0Z"/>
</mask>
<path d="M11.9667 10C12.0333 9.45 12.0833 8.9 12.0833 8.33333C12.0833 7.76667 12.0333 7.21667 11.9667 6.66667H14.7833C14.9167 7.2 15 7.75833 15 8.33333C15 8.90833 14.9167 9.46667 14.7833 10M10.4917 14.6333C10.9917 13.7083 11.375 12.7083 11.6417 11.6667H14.1C13.2926 13.0569 12.0118 14.11 10.4917 14.6333ZM10.2833 10H6.38333C6.3 9.45 6.25 8.9 6.25 8.33333C6.25 7.76667 6.3 7.20833 6.38333 6.66667H10.2833C10.3583 7.20833 10.4167 7.76667 10.4167 8.33333C10.4167 8.9 10.3583 9.45 10.2833 10ZM8.33333 14.9667C7.64167 13.9667 7.08333 12.8583 6.74167 11.6667H9.925C9.58333 12.8583 9.025 13.9667 8.33333 14.9667ZM5 5H2.56667C3.36571 3.60601 4.64566 2.55124 6.16667 2.03333C5.66667 2.95833 5.29167 3.95833 5 5ZM2.56667 11.6667H5C5.29167 12.7083 5.66667 13.7083 6.16667 14.6333C4.64885 14.1097 3.37071 13.0564 2.56667 11.6667ZM1.88333 10C1.75 9.46667 1.66667 8.90833 1.66667 8.33333C1.66667 7.75833 1.75 7.2 1.88333 6.66667H4.7C4.63333 7.21667 4.58333 7.76667 4.58333 8.33333C4.58333 8.9 4.63333 9.45 4.7 10M8.33333 1.69167C9.025 2.69167 9.58333 3.80833 9.925 5H6.74167C7.08333 3.80833 7.64167 2.69167 8.33333 1.69167ZM14.1 5H11.6417C11.3809 3.96788 10.9946 2.97158 10.4917 2.03333C12.025 2.55833 13.3 3.61667 14.1 5ZM8.33333 0C3.725 0 0 3.75 0 8.33333C0 10.5435 0.877974 12.6631 2.44078 14.2259C3.2146 14.9997 4.13326 15.6135 5.1443 16.0323C6.15535 16.4511 7.23898 16.6667 8.33333 16.6667C10.5435 16.6667 12.6631 15.7887 14.2259 14.2259C15.7887 12.6631 16.6667 10.5435 16.6667 8.33333C16.6667 7.23898 16.4511 6.15535 16.0323 5.1443C15.6135 4.13326 14.9997 3.2146 14.2259 2.44078C13.4521 1.66696 12.5334 1.05313 11.5224 0.634337C10.5113 0.215548 9.42768 0 8.33333 0Z" fill="none"/>
<path d="M11.9667 6.66667V5.66667H10.8381L10.9739 6.787L11.9667 6.66667ZM14.7833 6.66667L15.7535 6.42413L15.5641 5.66667H14.7833V6.66667ZM10.4917 14.6333L9.61196 14.1578L8.39262 16.4136L10.8172 15.5789L10.4917 14.6333ZM11.6417 11.6667V10.6667H10.8654L10.6729 11.4187L11.6417 11.6667ZM14.1 11.6667L14.9648 12.1689L15.8371 10.6667H14.1V11.6667ZM10.2833 10V11H11.1562L11.2742 10.1351L10.2833 10ZM6.38333 10L5.39462 10.1498L5.52343 11H6.38333V10ZM6.38333 6.66667V5.66667H5.52541L5.39496 6.51461L6.38333 6.66667ZM10.2833 6.66667L11.2739 6.52951L11.1544 5.66667H10.2833V6.66667ZM8.33333 14.9667L7.51089 15.5355L8.33333 16.7246L9.15577 15.5355L8.33333 14.9667ZM6.74167 11.6667V10.6667H5.41466L5.7804 11.9423L6.74167 11.6667ZM9.925 11.6667L10.8863 11.9423L11.252 10.6667H9.925V11.6667ZM5 5V6H5.75846L5.96296 5.26963L5 5ZM2.56667 5L1.69909 4.5027L0.840822 6H2.56667V5ZM6.16667 2.03333L7.04637 2.50885L8.25965 0.264286L5.84434 1.08671L6.16667 2.03333ZM2.56667 11.6667V10.6667H0.832827L1.70109 12.1674L2.56667 11.6667ZM5 11.6667L5.96296 11.397L5.75846 10.6667H5V11.6667ZM6.16667 14.6333L5.84055 15.5787L8.26684 16.4157L7.04637 14.1578L6.16667 14.6333ZM1.88333 6.66667V5.66667H1.10256L0.913191 6.42413L1.88333 6.66667ZM4.7 6.66667L5.69273 6.787L5.82853 5.66667H4.7V6.66667ZM8.33333 1.69167L9.15577 1.12281L8.33333 -0.066255L7.51089 1.12281L8.33333 1.69167ZM9.925 5V6H11.252L10.8863 4.72439L9.925 5ZM6.74167 5L5.7804 4.72439L5.41466 6H6.74167V5ZM14.1 5V6H15.8335L14.9657 4.49937L14.1 5ZM11.6417 5L10.6721 5.245L10.8629 6H11.6417V5ZM10.4917 2.03333L10.8156 1.08725L8.40793 0.262889L9.61032 2.50581L10.4917 2.03333ZM8.33333 0V-1V0ZM8.33333 16.6667L8.33333 17.6667L8.33333 16.6667ZM12.9594 10.1203C13.0282 9.55233 13.0833 8.9575 13.0833 8.33333H11.0833C11.0833 8.8425 11.0384 9.34767 10.9739 9.87967L12.9594 10.1203ZM13.0833 8.33333C13.0833 7.70917 13.0282 7.11434 12.9594 6.54634L10.9739 6.787C11.0384 7.31899 11.0833 7.82417 11.0833 8.33333H13.0833ZM11.9667 7.66667H14.7833V5.66667H11.9667V7.66667ZM13.8132 6.9092C13.9306 7.37895 14 7.85486 14 8.33333H16C16 7.6618 15.9027 7.02105 15.7535 6.42413L13.8132 6.9092ZM14 8.33333C14 8.8118 13.9306 9.28772 13.8132 9.75746L15.7535 10.2425C15.9027 9.64562 16 9.00486 16 8.33333H14ZM11.3714 15.1088C11.9129 14.107 12.3249 13.0299 12.6104 11.9147L10.6729 11.4187C10.4251 12.3867 10.0704 13.3096 9.61196 14.1578L11.3714 15.1088ZM11.6417 12.6667H14.1V10.6667H11.6417V12.6667ZM13.2352 11.1645C12.5485 12.3469 11.4591 13.2427 10.1661 13.6878L10.8172 15.5789C12.5645 14.9773 14.0367 13.7668 14.9648 12.1689L13.2352 11.1645ZM10.2833 9H6.38333V11H10.2833V9ZM7.37205 9.85019C7.29469 9.33961 7.25 8.84052 7.25 8.33333H5.25C5.25 8.95948 5.30531 9.56039 5.39462 10.1498L7.37205 9.85019ZM7.25 8.33333C7.25 7.82514 7.29487 7.31815 7.3717 6.81872L5.39496 6.51461C5.30513 7.09851 5.25 7.70819 5.25 8.33333H7.25ZM6.38333 7.66667H10.2833V5.66667H6.38333V7.66667ZM9.29278 6.80382C9.36502 7.32555 9.41667 7.8326 9.41667 8.33333H11.4167C11.4167 7.70073 11.3516 7.09112 11.2739 6.52951L9.29278 6.80382ZM9.41667 8.33333C9.41667 8.83347 9.36519 9.33185 9.2925 9.86489L11.2742 10.1351C11.3515 9.56815 11.4167 8.96653 11.4167 8.33333H9.41667ZM9.15577 14.3978C8.5168 13.474 8.01043 12.4635 7.70294 11.3911L5.7804 11.9423C6.15624 13.2531 6.76653 14.4593 7.51089 15.5355L9.15577 14.3978ZM6.74167 12.6667H9.925V10.6667H6.74167V12.6667ZM8.96373 11.3911C8.65624 12.4635 8.14986 13.474 7.51089 14.3978L9.15577 15.5355C9.90014 14.4593 10.5104 13.2531 10.8863 11.9423L8.96373 11.3911ZM5 4H2.56667V6H5V4ZM3.43424 5.4973C4.11227 4.31445 5.19836 3.41943 6.489 2.97996L5.84434 1.08671C4.09297 1.68305 2.61916 2.89758 1.69909 4.5027L3.43424 5.4973ZM5.28696 1.55782C4.74351 2.56321 4.34351 3.63582 4.03704 4.73037L5.96296 5.26963C6.23982 4.28084 6.58983 3.35346 7.04637 2.50885L5.28696 1.55782ZM2.56667 12.6667H5V10.6667H2.56667V12.6667ZM4.03704 11.9363C4.34351 13.0308 4.74351 14.1035 5.28696 15.1088L7.04637 14.1578C6.58983 13.3132 6.23982 12.3858 5.96296 11.397L4.03704 11.9363ZM6.49278 13.688C5.20242 13.2429 4.1158 12.3474 3.43224 11.1659L1.70109 12.1674C2.62561 13.7655 4.09529 14.9766 5.84055 15.5787L6.49278 13.688ZM2.85348 9.75746C2.73604 9.28772 2.66667 8.8118 2.66667 8.33333H0.666667C0.666667 9.00486 0.763962 9.64562 0.913191 10.2425L2.85348 9.75746ZM2.66667 8.33333C2.66667 7.85486 2.73604 7.37895 2.85348 6.9092L0.913191 6.42413C0.763962 7.02105 0.666667 7.6618 0.666667 8.33333H2.66667ZM1.88333 7.66667H4.7V5.66667H1.88333V7.66667ZM3.70727 6.54634C3.63842 7.11434 3.58333 7.70917 3.58333 8.33333H5.58333C5.58333 7.82417 5.62825 7.31899 5.69273 6.787L3.70727 6.54634ZM3.58333 8.33333C3.58333 8.9575 3.63842 9.55233 3.70727 10.1203L5.69273 9.87967C5.62825 9.34767 5.58333 8.8425 5.58333 8.33333H3.58333ZM7.51089 2.26052C8.14865 3.18257 8.65572 4.20133 8.96373 5.27561L10.8863 4.72439C10.5109 3.41533 9.90135 2.20076 9.15577 1.12281L7.51089 2.26052ZM9.925 4H6.74167V6H9.925V4ZM7.70294 5.27561C8.01095 4.20133 8.51802 3.18257 9.15577 2.26052L7.51089 1.12281C6.76531 2.20076 6.15572 3.41533 5.7804 4.72439L7.70294 5.27561ZM14.1 4H11.6417V6H14.1V4ZM12.6112 4.755C12.3304 3.64374 11.9146 2.57105 11.373 1.56086L9.61032 2.50581C10.0747 3.37211 10.4313 4.29202 10.6721 5.245L12.6112 4.755ZM10.1677 2.97941C11.4711 3.42566 12.5544 4.32487 13.2343 5.50062L14.9657 4.49937C14.0456 2.90846 12.5789 1.691 10.8156 1.08725L10.1677 2.97941ZM8.33333 -1C3.17076 -1 -1 3.19967 -1 8.33333H1C1 4.30033 4.27924 1 8.33333 1V-1ZM-1 8.33333C-1 10.8087 -0.0166695 13.1827 1.73367 14.933L3.14788 13.5188C1.77262 12.1435 1 10.2783 1 8.33333H-1ZM1.73367 14.933C2.60035 15.7997 3.62925 16.4872 4.76162 16.9562L5.52699 15.1085C4.63727 14.7399 3.82885 14.1997 3.14788 13.5188L1.73367 14.933ZM4.76162 16.9562C5.89399 17.4253 7.10766 17.6667 8.33333 17.6667L8.33333 15.6667C7.37031 15.6667 6.41671 15.477 5.52699 15.1085L4.76162 16.9562ZM8.33333 17.6667C10.8087 17.6667 13.1827 16.6833 14.933 14.933L13.5188 13.5188C12.1435 14.894 10.2783 15.6667 8.33333 15.6667L8.33333 17.6667ZM14.933 14.933C16.6833 13.1827 17.6667 10.8087 17.6667 8.33333H15.6667C15.6667 10.2783 14.894 12.1435 13.5188 13.5188L14.933 14.933ZM17.6667 8.33333C17.6667 7.10766 17.4253 5.89399 16.9562 4.76162L15.1085 5.52699C15.477 6.41671 15.6667 7.37031 15.6667 8.33333H17.6667ZM16.9562 4.76162C16.4872 3.62925 15.7997 2.60035 14.933 1.73367L13.5188 3.14788C14.1997 3.82885 14.7399 4.63727 15.1085 5.52699L16.9562 4.76162ZM14.933 1.73367C14.0663 0.86699 13.0374 0.179502 11.905 -0.289542L11.1397 1.55822C12.0294 1.92675 12.8378 2.46692 13.5188 3.14788L14.933 1.73367ZM11.905 -0.289542C10.7727 -0.758586 9.559 -1 8.33333 -1L8.33333 1C9.29636 1 10.25 1.18968 11.1397 1.55822L11.905 -0.289542Z" fill="#12D0FA" mask="url(#path-1-inside-1_62_60)"/>
</svg>
