<svg width="82" height="15" viewBox="0 0 82 15" fill="none" xmlns="http://www.w3.org/2000/svg">
<g clip-path="url(#clip0_1_21)">
<path d="M0.450012 5.40052H6.91989H10.8489V2.15088L0.450012 5.40052Z" fill="#FF9D28"/>
<path d="M10.8489 2.45727V14.5001L14.0986 0.851562L10.8489 2.45727Z" fill="#68C5ED"/>
<path d="M10.8486 5.40137H6.29913L10.8486 14.5004V5.40137Z" fill="#044D80"/>
<path d="M0.450012 5.40137L6.9493 7.35115L6.07047 5.40137H0.450012Z" fill="#E54747"/>
<path d="M35.453 6.06766H29.5869L27.7811 0.852051L25.9646 6.06766L20.0984 6.05767L24.8426 9.28495L23.0262 14.5006L27.7704 11.2733L32.5146 14.5006L30.7088 9.28495L35.453 6.06766Z" fill="#00B67A"/>
<path d="M30.3353 10.394L30.1275 9.38232L28.6292 11.0884L30.3353 10.394Z" fill="#005128"/>
<path d="M50.6845 10.5372C51.1799 11.3969 51.6698 12.2469 52.1593 13.0959C49.9916 14.7555 46.6191 14.9561 44.1225 13.0449C41.2494 10.8439 40.7772 7.08826 42.3154 4.38481C44.0845 1.27526 47.3952 0.587563 49.5268 1.09182C49.4691 1.21706 48.1925 3.86563 48.1925 3.86563C48.1925 3.86563 48.0915 3.87226 48.0344 3.87336C47.4044 3.90007 46.9351 4.04667 46.4321 4.30672C45.8803 4.59467 45.4074 5.0134 45.0548 5.52631C44.7021 6.03922 44.4805 6.63069 44.4092 7.24904C44.3348 7.87613 44.4216 8.51183 44.6612 9.09609C44.8637 9.59004 45.1503 10.0287 45.5345 10.3991C46.1238 10.9678 46.8252 11.32 47.6381 11.4365C48.4079 11.547 49.1483 11.4376 49.8421 11.089C50.1023 10.9584 50.3237 10.8142 50.5824 10.6164C50.6154 10.5951 50.6447 10.568 50.6845 10.5372Z" fill="#FF492C"/>
<path d="M50.6893 2.99713C50.5635 2.87337 50.4469 2.75918 50.3309 2.64426C50.2617 2.57575 50.195 2.50447 50.1241 2.43762C50.0987 2.41349 50.0688 2.38053 50.0688 2.38053C50.0688 2.38053 50.093 2.32933 50.1033 2.30833C50.239 2.03594 50.4517 1.83685 50.704 1.67847C50.9831 1.50199 51.3081 1.4122 51.6382 1.42044C52.0605 1.42873 52.4531 1.53389 52.7844 1.81715C53.029 2.02618 53.1544 2.29139 53.1765 2.60798C53.2134 3.14208 52.9924 3.55112 52.5535 3.83658C52.2956 4.00455 52.0175 4.13439 51.7387 4.28817C51.5849 4.37308 51.4534 4.44766 51.3031 4.60126C51.1709 4.75542 51.1645 4.90073 51.1645 4.90073L53.1622 4.89815V5.78788H50.0786V5.70187C50.0668 5.26465 50.1178 4.85321 50.318 4.45614C50.5022 4.09185 50.7884 3.82517 51.1322 3.61982C51.3971 3.46161 51.6759 3.32698 51.9413 3.16952C52.105 3.07246 52.2207 2.93009 52.2198 2.72364C52.2198 2.54647 52.0908 2.389 51.9067 2.33983C51.4724 2.22269 51.0304 2.40963 50.8005 2.80707C50.767 2.86508 50.7328 2.92273 50.6893 2.99713ZM54.5534 9.5912L52.8699 6.68387H49.5384L47.844 9.62122H51.2L52.8561 12.5147L54.5534 9.5912Z" fill="#FF492C"/>
<path d="M80.601 7.28327L75.2087 1.89104C75.0223 1.71796 74.7427 1.71796 74.5697 1.89104L73.5045 2.95617L77.8316 7.28327C78.0047 7.45635 78.0047 7.74927 77.8316 7.92235L73.3714 12.3826L74.4365 13.4477C74.6229 13.6208 74.9025 13.6208 75.0756 13.4477L80.5876 7.93566C80.774 7.74926 80.774 7.46967 80.601 7.28327Z" fill="#009C9C"/>
<path d="M71.4148 2.29229L71.0287 1.90618C70.8423 1.7331 70.5627 1.7331 70.3896 1.90618L69.3245 2.97131L70.0302 3.67696L71.4148 5.06163L72.7995 3.67696L71.4148 2.29229Z" fill="#40E3E3"/>
<path d="M71.2947 10.3057L69.91 11.6903L69.2044 12.396L70.2695 13.4611C70.4559 13.6342 70.7355 13.6342 70.9086 13.4611L71.2947 13.075L72.6794 11.6903L71.2947 10.3057Z" fill="#40E3E3"/>
<path d="M73.6646 7.2855C73.8377 7.4719 73.8377 7.7515 73.6646 7.92459L71.2947 10.2945L72.6794 11.6792L76.434 7.92459C76.6071 7.7515 76.6071 7.45859 76.434 7.2855L72.8125 3.66406L71.4146 5.04873L73.6646 7.2855Z" fill="#1ABAB8"/>
<path d="M64.864 7.41641L68.6186 3.66183L67.2339 2.27715L66.8345 1.89104C66.6481 1.71796 66.3685 1.71796 66.1954 1.89104L60.6833 7.41641C60.5102 7.58949 60.5102 7.88241 60.6833 8.05549L66.0756 13.4477C66.262 13.6208 66.5415 13.6208 66.7146 13.4477L67.1141 13.0616L68.4987 11.6769L64.8773 8.05549C64.6909 7.88241 64.6909 7.60281 64.864 7.41641Z" fill="#87F0F0"/>
<path d="M69.0445 7.4151L70.6955 5.76415L69.3108 4.37948L68.6051 3.67383L64.8772 7.42842C64.7041 7.6015 64.7041 7.89441 64.8772 8.06749L68.4853 11.6756L69.191 10.97L70.5756 9.58531L69.0445 8.05418C68.8714 7.89441 68.8714 7.6015 69.0445 7.4151Z" fill="#40E3E3"/>
<path d="M69.0444 8.05517L70.5756 9.58629L72.2265 7.93534C72.3996 7.76226 72.3996 7.46935 72.2265 7.29626L70.6954 5.76514L69.0444 7.41609C68.8847 7.60249 68.8847 7.88209 69.0444 8.05517Z" fill="#17CFCF"/>
</g>
<defs>
<clipPath id="clip0_1_21">
<rect width="81" height="14" fill="white" transform="translate(0.450012 0.5)"/>
</clipPath>
</defs>
</svg>
