<svg width="18" height="18" viewBox="0 0 18 18" fill="none" xmlns="http://www.w3.org/2000/svg">
<path d="M9.35818 0.843844L9.36 0.844836L16.235 4.60655L16.4687 4.17939L16.235 4.60656C16.353 4.67113 16.4515 4.76625 16.5201 4.88195C16.5887 4.9976 16.6249 5.12956 16.625 5.26402C16.625 5.26408 16.625 5.26415 16.625 5.26421L16.625 12.734C16.625 12.7341 16.625 12.7342 16.625 12.7344C16.6246 12.8685 16.5883 13.0001 16.5197 13.1154C16.4511 13.2309 16.3528 13.3258 16.235 13.3902L16.2349 13.3903L9.35992 17.1535L9.35819 17.1545C9.24852 17.2151 9.12529 17.2469 9 17.2469C8.87471 17.2469 8.75147 17.2151 8.64182 17.1545L8.64008 17.1535L1.76508 13.3903L1.765 13.3902C1.6472 13.3258 1.54886 13.2309 1.48026 13.1154C1.41174 13.0001 1.37539 12.8686 1.375 12.7345V5.26388C1.37539 5.12976 1.41174 4.99821 1.48026 4.88291C1.54886 4.76748 1.6472 4.67257 1.765 4.60812L1.76508 4.60808L8.64008 0.844794L8.64008 0.844798L8.64181 0.84384C8.75147 0.783248 8.87471 0.751465 9 0.751465C9.12529 0.751465 9.24853 0.783248 9.35818 0.843844ZM9.24018 1.06141L9 0.929877L8.75982 1.06141L2.48326 4.49891L1.68253 4.93745L2.48326 5.37599L8.75982 8.81349L9 8.94503L9.24018 8.81349L15.5167 5.37599L16.3175 4.93745L15.5167 4.49891L9.24018 1.06141ZM2.36503 5.59259L1.625 5.1876V6.0312V12.7359V13.0323L1.88509 13.1746L8.13509 16.5925L8.875 16.9972V16.1539V9.45152V9.15517L8.61503 9.0129L2.36503 5.59259ZM9.125 16.1539V16.9976L9.86508 16.5925L16.1151 13.1714L16.375 13.0291V12.7328V6.0312V5.18723L15.6348 5.59268L9.3848 9.01612L9.125 9.15842V9.45464V16.1539Z" fill="black" stroke="#FF0B71"/>
</svg>
