<svg width="17" height="17" viewBox="0 0 17 17" fill="none" xmlns="http://www.w3.org/2000/svg">
<path d="M6.5525 12.6667H10.4467M8.5 1V1.83333M13.8033 3.19667L13.2142 3.78583M16 8.5H15.1667M1.83333 8.5H1M3.78583 3.78583L3.19667 3.19667M5.55333 11.4467C4.97072 10.8639 4.574 10.1215 4.41331 9.31325C4.25263 8.50502 4.33521 7.6673 4.65061 6.90601C4.966 6.14471 5.50006 5.49403 6.18524 5.03624C6.87042 4.57845 7.67596 4.33411 8.5 4.33411C9.32404 4.33411 10.1296 4.57845 10.8148 5.03624C11.4999 5.49403 12.034 6.14471 12.3494 6.90601C12.6648 7.6673 12.7474 8.50502 12.5867 9.31325C12.426 10.1215 12.0293 10.8639 11.4467 11.4467L10.99 11.9025C10.7289 12.1636 10.5218 12.4736 10.3806 12.8148C10.2393 13.1559 10.1666 13.5216 10.1667 13.8908V14.3333C10.1667 14.7754 9.99107 15.1993 9.67851 15.5118C9.36595 15.8244 8.94203 16 8.5 16C8.05797 16 7.63405 15.8244 7.32149 15.5118C7.00893 15.1993 6.83333 14.7754 6.83333 14.3333V13.8908C6.83333 13.145 6.53667 12.4292 6.01 11.9025L5.55333 11.4467Z" stroke="#7B68EE" stroke-width="1.66667" stroke-linecap="round" stroke-linejoin="round"/>
</svg>
