<svg xmlns:xlink="http://www.w3.org/1999/xlink" xmlns="http://www.w3.org/2000/svg" width="26" height="26" viewBox="0 0 26 26" aria-hidden="true" focusable="false"><defs><symbol fill="none" xmlns="http://www.w3.org/2000/svg" viewBox="0 0 27 24" id="nav-icon-tasks">
    <path clip-rule="evenodd" d="m8.4243 5h10.6481c1.1762 0 2.1297.89543 2.1297 2v10c0 1.1046-.9535 2-2.1297 2h-10.6481c-1.17616 0-2.12963-.8954-2.12963-2v-10c0-1.10457.95347-2 2.12963-2zm-4.25926 2c0-2.20914 1.90693-4 4.25926-4h10.6481c2.3524 0 4.2593 1.79086 4.2593 4v10c0 2.2091-1.9069 4-4.2593 4h-10.6481c-2.35233 0-4.25926-1.7909-4.25926-4zm14.59556 3.2071c.4158-.39052.4158-1.02368 0-1.41421-.4159-.39052-1.0901-.39052-1.5059 0l-4.5711 4.29291-2.4415-2.2929c-.41589-.3905-1.09009-.3905-1.50592 0-.41584.3905-.41584 1.0237 0 1.4142l3.19442 3c.4159.3905 1.0901.3905 1.5059 0z" fill="#00b884" fill-rule="evenodd"></path>
  </symbol></defs><use href="/assets/CuNavigationSprite.svg#nav-icon-tasks" xlink:href="#nav-icon-tasks"></use></svg>