<svg width="20" height="20" viewBox="0 0 20 20" fill="none" xmlns="http://www.w3.org/2000/svg">
<path d="M5.83341 4.16663C4.91425 4.16663 4.16675 4.91413 4.16675 5.83329V14.1666C4.16675 15.0858 4.91425 15.8333 5.83341 15.8333H14.1667C15.0859 15.8333 15.8334 15.0858 15.8334 14.1666V5.83329C15.8334 4.91413 15.0859 4.16663 14.1667 4.16663H5.83341ZM5.83341 14.1666V5.83329H14.1667L14.1684 14.1666H5.83341Z" fill="black"/>
<path d="M5.33341 14.1666V14.6666H5.83341H14.1684H14.6685L14.6684 14.1665L14.6667 5.83319L14.6666 5.33329H14.1667H5.83341H5.33341V5.83329V14.1666ZM4.66675 5.83329C4.66675 5.19027 5.19039 4.66663 5.83341 4.66663H14.1667C14.8098 4.66663 15.3334 5.19027 15.3334 5.83329V14.1666C15.3334 14.8097 14.8098 15.3333 14.1667 15.3333H5.83341C5.19039 15.3333 4.66675 14.8097 4.66675 14.1666V5.83329Z" stroke="#1ED526" stroke-opacity="0.8"/>
<path d="M8.81332 10.8203L9.16502 11.1652L9.51513 10.8187L11.9104 8.44811L12.379 8.92203L9.16815 12.1001L7.62383 10.5883L8.09061 10.1116L8.81332 10.8203Z" fill="black" stroke="#0FF033"/>
</svg>
