<svg width="18" height="14" viewBox="0 0 18 14" fill="none" xmlns="http://www.w3.org/2000/svg">
<path d="M16.25 0H1.25C0.918581 0.000330923 0.600831 0.132133 0.366482 0.366482C0.132133 0.600831 0.000330923 0.918581 0 1.25V12.5C0.000330923 12.8314 0.132133 13.1492 0.366482 13.3835C0.600831 13.6179 0.918581 13.7497 1.25 13.75H16.25C16.5814 13.7497 16.8992 13.6179 17.1335 13.3835C17.3679 13.1492 17.4997 12.8314 17.5 12.5V1.25C17.4997 0.918581 17.3679 0.600831 17.1335 0.366482C16.8992 0.132133 16.5814 0.000330923 16.25 0ZM1.25 1.25H8.125V12.5H1.25V1.25ZM9.375 12.5V1.25H16.25V12.5H9.375Z" fill="black"/>
<path d="M1.25 0.75H0.75V1.25V12.5V13H1.25H8.125H8.625V12.5V1.25V0.75H8.125H1.25ZM8.875 12.5V13H9.375H16.25H16.75V12.5V1.25V0.75H16.25H9.375H8.875V1.25V12.5ZM0.720035 0.720036C0.860689 0.579382 1.05138 0.500254 1.25029 0.5H16.2497C16.4486 0.500254 16.6393 0.579382 16.78 0.720036C16.9207 0.860738 16.9998 1.05152 17 1.2505V12.4995C16.9998 12.6985 16.9207 12.8893 16.78 13.03C16.6393 13.1707 16.4485 13.2498 16.2495 13.25H1.2505C1.05152 13.2498 0.860738 13.1707 0.720035 13.03C0.579382 12.8893 0.500254 12.6986 0.5 12.4997V1.25029C0.500254 1.05138 0.579382 0.860689 0.720035 0.720036Z" stroke="#FF2C39" stroke-opacity="0.92"/>
</svg>
