<svg width="17" height="15" viewBox="0 0 17 15" fill="none" xmlns="http://www.w3.org/2000/svg">
<path d="M16.1667 5.34373V11.535C16.1667 12.0931 15.945 12.6283 15.5504 13.0229C15.1558 13.4175 14.6206 13.6392 14.0625 13.6392H2.60417C2.04611 13.6392 1.5109 13.4175 1.1163 13.0229C0.721688 12.6283 0.5 12.0931 0.5 11.535V3.41003C0.5 2.85197 0.721688 2.31677 1.1163 1.92216C1.5109 1.52756 2.04611 1.30587 2.60417 1.30587H10.125L10.0833 1.34753H2.60417C2.05716 1.34753 1.53255 1.56483 1.14576 1.95163C0.758965 2.33842 0.541667 2.86303 0.541667 3.41003V5.46503V6.45673L1.33899 5.86703C1.75374 5.56028 2.19464 5.25221 2.63236 4.99403L2.63246 4.99397C3.17375 4.67452 3.71364 4.42862 4.19776 4.35475C4.68431 4.28068 5.11469 4.38008 5.43243 4.75082L5.4325 4.7509C5.59149 4.93633 5.67446 5.12853 5.70055 5.32627L5.70056 5.32635C5.72661 5.52357 5.69566 5.72506 5.62792 5.92929L5.6279 5.92937C5.50255 6.3075 5.24647 6.70191 4.98868 7.09355C4.98852 7.0938 4.98835 7.09405 4.98819 7.09429L4.9391 7.16833L4.9391 7.16833L4.93784 7.17025C4.66501 7.5859 4.39908 8.00041 4.29263 8.4007L4.29248 8.40125C4.23994 8.59976 4.22602 8.79532 4.27128 8.9861C4.31566 9.17524 4.41817 9.36096 4.59751 9.54091L4.59855 9.54194C4.83484 9.77764 5.08096 9.89486 5.32827 9.92703L16.1667 5.34373ZM16.1667 5.34373L16.125 5.38739L16.1667 5.34373ZM6.08664 9.84053C6.58411 9.62682 7.05007 9.20244 7.41041 8.84168L7.41061 8.84148C7.41453 8.83756 7.41673 8.83225 7.41673 8.8267C7.41673 8.82116 7.41453 8.81584 7.41061 8.81192C7.40669 8.808 7.40138 8.8058 7.39583 8.8058C7.39029 8.8058 7.38497 8.808 7.38105 8.81192C7.02066 9.17231 6.55965 9.59192 6.07007 9.80226L6.08664 9.84053ZM6.08664 9.84053C5.8376 9.94735 5.57981 10.0019 5.32282 9.96843M6.08664 9.84053L5.32282 9.96843M5.32282 9.96843C5.06554 9.93475 4.81107 9.81316 4.56855 9.57065C4.38317 9.38486 4.27672 9.1928 4.23071 8.99532L4.23054 8.99461C4.18419 8.797 4.1982 8.59476 4.25236 8.39025C4.3612 7.98236 4.63078 7.56146 4.90317 7.14727M5.32282 9.96843L4.90317 7.14727M4.90317 7.14727L4.91723 7.12598L4.91777 7.12517C4.92582 7.11292 4.93388 7.10068 4.94193 7.08843C5.20213 6.69293 5.4615 6.29869 5.58834 5.91615L5.58848 5.91572C5.65427 5.71673 5.68402 5.52228 5.65965 5.3332L5.65965 5.3332L5.65936 5.33104C5.6342 5.14229 5.55512 4.95743 5.40072 4.77779C5.26421 4.61841 5.08955 4.49309 4.86817 4.4262C4.65481 4.36173 4.43033 4.36126 4.2042 4.39575L4.20396 4.39579C3.7277 4.46866 3.19307 4.71155 2.65402 5.0293L2.6537 5.02948C2.11459 5.34779 1.57161 5.74142 1.07883 6.11383C1.07873 6.1139 1.07863 6.11398 1.07854 6.11405L1.38 6.51295L4.90317 7.14727ZM12.21 6.53231L12.21 6.53233C12.0666 6.68251 11.8824 6.78742 11.6801 6.83407L11.6801 6.83408L9.27595 7.38866L9.27572 7.38872C9.2724 7.38948 9.26895 7.38942 9.26566 7.38855C9.26237 7.38767 9.25935 7.386 9.25685 7.38369C9.25436 7.38137 9.25247 7.37848 9.25135 7.37527C9.25023 7.37205 9.24992 7.36861 9.25043 7.36525L9.25044 7.3652L9.61502 4.99436L9.61503 4.99435C9.64938 4.77092 9.75409 4.56428 9.91394 4.40445L9.91397 4.40442L13.3884 0.930008C13.6698 0.654745 14.0478 0.500401 14.4415 0.500001C14.836 0.499599 15.2149 0.65375 15.4971 0.929411C15.7792 1.20507 15.9422 1.5803 15.951 1.97468C15.9598 2.36831 15.8143 2.74974 15.5457 3.03753L12.21 6.53231ZM15.6765 1.1811L15.6763 1.18083C15.5559 1.0004 15.397 0.848916 15.211 0.737304C15.025 0.625692 14.8165 0.55673 14.6007 0.535385C14.3848 0.514041 14.1669 0.540845 13.9626 0.613867C13.7584 0.68689 13.5728 0.804312 13.4194 0.957672L13.4194 0.957731L9.94371 4.43338C9.94365 4.43344 9.94359 4.4335 9.94353 4.43356C9.78995 4.58706 9.68931 4.78554 9.65625 5.00015L9.65623 5.00028L9.40831 6.61237L9.29619 7.34141L10.0149 7.17557L11.6708 6.79348L11.6709 6.79345C11.8651 6.74858 12.042 6.64782 12.1796 6.50359C12.1796 6.50357 12.1796 6.50356 12.1797 6.50354L15.5171 3.00693L15.5172 3.00684C15.7471 2.76584 15.8882 2.45375 15.9171 2.12192C15.9461 1.79009 15.8612 1.45828 15.6765 1.1811ZM5.32878 9.9271C5.57545 9.95936 5.82541 9.90746 6.06981 9.80237L5.32878 9.9271Z" fill="black" stroke="#2684FF"/>
</svg>
